<?plantuml 1.2026.3beta3?><svg xmlns="http://www.w3.org/2000/svg" xmlns:xlink="http://www.w3.org/1999/xlink" contentStyleType="text/css" data-diagram-type="CLASS" height="1189px" preserveAspectRatio="none" style="width:1777px;height:1189px;background:#FFFFFF;" version="1.1" viewBox="0 0 1777 1189" width="1777px" zoomAndPan="magnify"><defs/><g><!--class Node--><g class="entity" data-qualified-name="Node" data-source-line="4" id="ent0002"><rect fill="#E0E0E0" height="96.8906" rx="2.5" ry="2.5" style="stroke:#181818;stroke-width:0.5;" width="310.6348" x="344.7" y="444.83"/><ellipse cx="477.4983" cy="460.83" fill="#B4A7E5" rx="11" ry="11" style="stroke:#181818;stroke-width:1;"/><path d="M473.4202,456.5956 L473.4202,454.4394 L480.8108,454.4394 L480.8108,456.5956 L478.3421,456.5956 L478.3421,464.6737 L480.8108,464.6737 L480.8108,466.83 L473.4202,466.83 L473.4202,464.6737 L475.889,464.6737 L475.889,456.5956 L473.4202,456.5956 Z " fill="#000000"/><text fill="#000000" font-family="sans-serif" font-size="14" font-style="italic" lengthAdjust="spacing" textLength="36.5381" x="497.9983" y="465.6767">Node</text><line style="stroke:#181818;stroke-width:0.5;" x1="345.7" x2="654.3348" y1="476.83" y2="476.83"/><text fill="#000000" font-family="sans-serif" font-size="14" lengthAdjust="spacing" textLength="62.1318" x="350.7" y="493.8251">id: string</text><text fill="#000000" font-family="sans-serif" font-size="14" lengthAdjust="spacing" textLength="83.2139" x="350.7" y="510.122">label: string</text><line style="stroke:#181818;stroke-width:1;" x1="345.7" x2="654.3348" y1="517.4237" y2="517.4237"/><text fill="#000000" font-family="sans-serif" font-size="14" lengthAdjust="spacing" textLength="298.6348" x="350.7" y="534.4189">to(target: Node, label?, opts?): Connection</text></g><!--class Shape--><g class="entity" data-qualified-name="Shape" data-source-line="11" id="ent0003"><rect fill="#E8EAF6" height="243.5625" rx="2.5" ry="2.5" style="stroke:#181818;stroke-width:0.5;" width="205.0742" x="557.48" y="651.31"/><ellipse cx="633.8477" cy="667.31" fill="#A9DCDF" rx="11" ry="11" style="stroke:#181818;stroke-width:1;"/><path d="M633.9571,662.6538 L632.8008,667.7319 L635.1289,667.7319 L633.9571,662.6538 Z M632.4727,660.4194 L635.4571,660.4194 L638.8164,672.81 L636.3633,672.81 L635.5977,669.7475 L632.3164,669.7475 L631.5664,672.81 L629.1289,672.81 L632.4727,660.4194 Z " fill="#000000"/><text fill="#000000" font-family="sans-serif" font-size="14" font-style="italic" lengthAdjust="spacing" textLength="43.8389" x="654.3477" y="672.1567">Shape</text><line style="stroke:#181818;stroke-width:0.5;" x1="558.48" x2="761.5542" y1="683.31" y2="683.31"/><text fill="#000000" font-family="sans-serif" font-size="14" lengthAdjust="spacing" textLength="62.1318" x="563.48" y="700.3051">id: string</text><text fill="#000000" font-family="sans-serif" font-size="14" lengthAdjust="spacing" textLength="83.2139" x="563.48" y="716.602">label: string</text><text fill="#000000" font-family="sans-serif" font-size="14" lengthAdjust="spacing" textLength="79.5225" x="563.48" y="732.8989">x?: number</text><text fill="#000000" font-family="sans-serif" font-size="14" lengthAdjust="spacing" textLength="79.5225" x="563.48" y="749.1957">y?: number</text><text fill="#000000" font-family="sans-serif" font-size="14" lengthAdjust="spacing" textLength="109.8262" x="563.48" y="765.4926">width?: number</text><text fill="#000000" font-family="sans-serif" font-size="14" lengthAdjust="spacing" textLength="115.8623" x="563.48" y="781.7895">height?: number</text><text fill="#000000" font-family="sans-serif" font-size="14" lengthAdjust="spacing" textLength="118.0225" x="563.48" y="798.0864">style?: StyleOpts</text><line style="stroke:#181818;stroke-width:1;" x1="558.48" x2="761.5542" y1="805.3881" y2="805.3881"/><text fill="#000000" font-family="sans-serif" font-size="14" font-style="italic" lengthAdjust="spacing" textLength="187.8516" x="563.48" y="822.3832">outline(w, h): Float64Array</text><text fill="#000000" font-family="sans-serif" font-size="14" font-style="italic" lengthAdjust="spacing" textLength="193.0742" x="563.48" y="838.6801">clipPoint(w, h, angle): [x, y]</text><text fill="#000000" font-family="sans-serif" font-size="14" font-style="italic" lengthAdjust="spacing" textLength="143.8691" x="563.48" y="854.977">labelPos(w, h): [x, y]</text><text fill="#000000" font-family="sans-serif" font-size="14" lengthAdjust="spacing" textLength="127.3125" x="563.48" y="871.2739">defaultSize: [w, h]</text><text fill="#000000" font-family="sans-serif" font-size="14" lengthAdjust="spacing" textLength="111.7949" x="563.48" y="887.5707">toJSON(): object</text></g><!--class Group--><g class="entity" data-qualified-name="Group" data-source-line="27" id="ent0004"><rect fill="#E8EAF6" height="162.0781" rx="2.5" ry="2.5" style="stroke:#181818;stroke-width:0.5;" width="199.8789" x="323.08" y="692.05"/><ellipse cx="397.3046" cy="708.05" fill="#ADD1B2" rx="11" ry="11" style="stroke:#181818;stroke-width:1;"/><path d="M400.2734,713.6906 Q399.6952,713.9875 399.0546,714.1281 Q398.414,714.2844 397.7109,714.2844 Q395.2109,714.2844 393.8827,712.6438 Q392.5702,710.9875 392.5702,707.8625 Q392.5702,704.7375 393.8827,703.0813 Q395.2109,701.425 397.7109,701.425 Q398.414,701.425 399.0546,701.5813 Q399.7109,701.7375 400.2734,702.0344 L400.2734,704.7531 Q399.6484,704.175 399.0546,703.9094 Q398.4609,703.6281 397.8359,703.6281 Q396.4921,703.6281 395.8046,704.7063 Q395.1171,705.7688 395.1171,707.8625 Q395.1171,709.9563 395.8046,711.0344 Q396.4921,712.0969 397.8359,712.0969 Q398.4609,712.0969 399.0546,711.8313 Q399.6484,711.55 400.2734,710.9719 L400.2734,713.6906 Z " fill="#000000"/><text fill="#000000" font-family="sans-serif" font-size="14" lengthAdjust="spacing" textLength="42.9297" x="417.8046" y="712.8967">Group</text><line style="stroke:#181818;stroke-width:0.5;" x1="324.08" x2="521.9589" y1="724.05" y2="724.05"/><text fill="#000000" font-family="sans-serif" font-size="14" lengthAdjust="spacing" textLength="62.1318" x="329.08" y="741.0451">id: string</text><text fill="#000000" font-family="sans-serif" font-size="14" lengthAdjust="spacing" textLength="83.2139" x="329.08" y="757.342">label: string</text><text fill="#000000" font-family="sans-serif" font-size="14" lengthAdjust="spacing" textLength="187.8789" x="329.08" y="773.6389">children: (Shape | Group)[]</text><text fill="#000000" font-family="sans-serif" font-size="14" lengthAdjust="spacing" textLength="128.2627" x="329.08" y="789.9357">style?: GroupStyle</text><line style="stroke:#181818;stroke-width:1;" x1="324.08" x2="521.9589" y1="797.2375" y2="797.2375"/><text fill="#000000" font-family="sans-serif" font-size="14" lengthAdjust="spacing" textLength="155.791" x="329.08" y="814.2326">add(el: Shape): Shape</text><text fill="#000000" font-family="sans-serif" font-size="14" lengthAdjust="spacing" textLength="184.4131" x="329.08" y="830.5295">group(label, opts?): Group</text><text fill="#000000" font-family="sans-serif" font-size="14" lengthAdjust="spacing" textLength="111.7949" x="329.08" y="846.8264">toJSON(): object</text></g><!--class RectangleShape--><g class="entity" data-qualified-name="RectangleShape" data-source-line="41" id="ent0007"><rect fill="#D1C4E9" height="48" rx="2.5" ry="2.5" style="stroke:#181818;stroke-width:0.5;" width="146.208" x="163.92" y="1049.34"/><ellipse cx="178.92" cy="1065.34" fill="#ADD1B2" rx="11" ry="11" style="stroke:#181818;stroke-width:1;"/><path d="M181.8888,1070.9806 Q181.3106,1071.2775 180.67,1071.4181 Q180.0294,1071.5744 179.3263,1071.5744 Q176.8263,1071.5744 175.4981,1069.9338 Q174.1856,1068.2775 174.1856,1065.1525 Q174.1856,1062.0275 175.4981,1060.3713 Q176.8263,1058.715 179.3263,1058.715 Q180.0294,1058.715 180.67,1058.8713 Q181.3263,1059.0275 181.8888,1059.3244 L181.8888,1062.0431 Q181.2638,1061.465 180.67,1061.1994 Q180.0763,1060.9181 179.4513,1060.9181 Q178.1075,1060.9181 177.42,1061.9963 Q176.7325,1063.0588 176.7325,1065.1525 Q176.7325,1067.2463 177.42,1068.3244 Q178.1075,1069.3869 179.4513,1069.3869 Q180.0763,1069.3869 180.67,1069.1213 Q181.2638,1068.84 181.8888,1068.2619 L181.8888,1070.9806 Z " fill="#000000"/><text fill="#000000" font-family="sans-serif" font-size="14" lengthAdjust="spacing" textLength="114.208" x="192.92" y="1070.1867">RectangleShape</text><line style="stroke:#181818;stroke-width:0.5;" x1="164.92" x2="309.128" y1="1081.34" y2="1081.34"/><line style="stroke:#181818;stroke-width:0.5;" x1="164.92" x2="309.128" y1="1089.34" y2="1089.34"/></g><!--class EllipseShape--><g class="entity" data-qualified-name="EllipseShape" data-source-line="42" id="ent0008"><rect fill="#D1C4E9" height="48" rx="2.5" ry="2.5" style="stroke:#181818;stroke-width:0.5;" width="121.1475" x="434.45" y="1049.34"/><ellipse cx="449.45" cy="1065.34" fill="#ADD1B2" rx="11" ry="11" style="stroke:#181818;stroke-width:1;"/><path d="M452.4188,1070.9806 Q451.8406,1071.2775 451.2,1071.4181 Q450.5594,1071.5744 449.8563,1071.5744 Q447.3563,1071.5744 446.0281,1069.9338 Q444.7156,1068.2775 444.7156,1065.1525 Q444.7156,1062.0275 446.0281,1060.3713 Q447.3563,1058.715 449.8563,1058.715 Q450.5594,1058.715 451.2,1058.8713 Q451.8563,1059.0275 452.4188,1059.3244 L452.4188,1062.0431 Q451.7938,1061.465 451.2,1061.1994 Q450.6063,1060.9181 449.9813,1060.9181 Q448.6375,1060.9181 447.95,1061.9963 Q447.2625,1063.0588 447.2625,1065.1525 Q447.2625,1067.2463 447.95,1068.3244 Q448.6375,1069.3869 449.9813,1069.3869 Q450.6063,1069.3869 451.2,1069.1213 Q451.7938,1068.84 452.4188,1068.2619 L452.4188,1070.9806 Z " fill="#000000"/><text fill="#000000" font-family="sans-serif" font-size="14" lengthAdjust="spacing" textLength="89.1475" x="463.45" y="1070.1867">EllipseShape</text><line style="stroke:#181818;stroke-width:0.5;" x1="435.45" x2="554.5975" y1="1081.34" y2="1081.34"/><line style="stroke:#181818;stroke-width:0.5;" x1="435.45" x2="554.5975" y1="1089.34" y2="1089.34"/></g><!--class DiamondShape--><g class="entity" data-qualified-name="DiamondShape" data-source-line="43" id="ent0009"><rect fill="#D1C4E9" height="48" rx="2.5" ry="2.5" style="stroke:#181818;stroke-width:0.5;" width="139.0508" x="590.5" y="1049.34"/><ellipse cx="605.5" cy="1065.34" fill="#ADD1B2" rx="11" ry="11" style="stroke:#181818;stroke-width:1;"/><path d="M608.4688,1070.9806 Q607.8906,1071.2775 607.25,1071.4181 Q606.6094,1071.5744 605.9063,1071.5744 Q603.4063,1071.5744 602.0781,1069.9338 Q600.7656,1068.2775 600.7656,1065.1525 Q600.7656,1062.0275 602.0781,1060.3713 Q603.4063,1058.715 605.9063,1058.715 Q606.6094,1058.715 607.25,1058.8713 Q607.9063,1059.0275 608.4688,1059.3244 L608.4688,1062.0431 Q607.8438,1061.465 607.25,1061.1994 Q606.6563,1060.9181 606.0313,1060.9181 Q604.6875,1060.9181 604,1061.9963 Q603.3125,1063.0588 603.3125,1065.1525 Q603.3125,1067.2463 604,1068.3244 Q604.6875,1069.3869 606.0313,1069.3869 Q606.6563,1069.3869 607.25,1069.1213 Q607.8438,1068.84 608.4688,1068.2619 L608.4688,1070.9806 Z " fill="#000000"/><text fill="#000000" font-family="sans-serif" font-size="14" lengthAdjust="spacing" textLength="107.0508" x="619.5" y="1070.1867">DiamondShape</text><line style="stroke:#181818;stroke-width:0.5;" x1="591.5" x2="728.5508" y1="1081.34" y2="1081.34"/><line style="stroke:#181818;stroke-width:0.5;" x1="591.5" x2="728.5508" y1="1089.34" y2="1089.34"/></g><!--class TextShape--><g class="entity" data-qualified-name="TextShape" data-source-line="44" id="ent0010"><rect fill="#D1C4E9" height="48" rx="2.5" ry="2.5" style="stroke:#181818;stroke-width:0.5;" width="106.7783" x="764.63" y="1049.34"/><ellipse cx="779.63" cy="1065.34" fill="#ADD1B2" rx="11" ry="11" style="stroke:#181818;stroke-width:1;"/><path d="M782.5988,1070.9806 Q782.0206,1071.2775 781.38,1071.4181 Q780.7394,1071.5744 780.0363,1071.5744 Q777.5363,1071.5744 776.2081,1069.9338 Q774.8956,1068.2775 774.8956,1065.1525 Q774.8956,1062.0275 776.2081,1060.3713 Q777.5363,1058.715 780.0363,1058.715 Q780.7394,1058.715 781.38,1058.8713 Q782.0363,1059.0275 782.5988,1059.3244 L782.5988,1062.0431 Q781.9738,1061.465 781.38,1061.1994 Q780.7863,1060.9181 780.1613,1060.9181 Q778.8175,1060.9181 778.13,1061.9963 Q777.4425,1063.0588 777.4425,1065.1525 Q777.4425,1067.2463 778.13,1068.3244 Q778.8175,1069.3869 780.1613,1069.3869 Q780.7863,1069.3869 781.38,1069.1213 Q781.9738,1068.84 782.5988,1068.2619 L782.5988,1070.9806 Z " fill="#000000"/><text fill="#000000" font-family="sans-serif" font-size="14" lengthAdjust="spacing" textLength="74.7783" x="793.63" y="1070.1867">TextShape</text><line style="stroke:#181818;stroke-width:0.5;" x1="765.63" x2="870.4083" y1="1081.34" y2="1081.34"/><line style="stroke:#181818;stroke-width:0.5;" x1="765.63" x2="870.4083" y1="1089.34" y2="1089.34"/></g><!--class Connection--><g class="entity" data-qualified-name="Connection" data-source-line="51" id="ent0015"><rect fill="#BBDEFB" height="162.0781" rx="2.5" ry="2.5" style="stroke:#181818;stroke-width:0.5;" width="176.5479" x="690.75" y="412.23"/><ellipse cx="735.1665" cy="428.23" fill="#ADD1B2" rx="11" ry="11" style="stroke:#181818;stroke-width:1;"/><path d="M738.1353,433.8706 Q737.5571,434.1675 736.9165,434.3081 Q736.2759,434.4644 735.5728,434.4644 Q733.0728,434.4644 731.7446,432.8237 Q730.4321,431.1675 730.4321,428.0425 Q730.4321,424.9175 731.7446,423.2612 Q733.0728,421.605 735.5728,421.605 Q736.2759,421.605 736.9165,421.7612 Q737.5728,421.9175 738.1353,422.2144 L738.1353,424.9331 Q737.5103,424.355 736.9165,424.0894 Q736.3228,423.8081 735.6978,423.8081 Q734.354,423.8081 733.6665,424.8862 Q732.979,425.9487 732.979,428.0425 Q732.979,430.1362 733.6665,431.2144 Q734.354,432.2769 735.6978,432.2769 Q736.3228,432.2769 736.9165,432.0112 Q737.5103,431.73 738.1353,431.1519 L738.1353,433.8706 Z " fill="#000000"/><text fill="#000000" font-family="sans-serif" font-size="14" lengthAdjust="spacing" textLength="79.2148" x="755.6665" y="433.0767">Connection</text><line style="stroke:#181818;stroke-width:0.5;" x1="691.75" x2="866.2979" y1="444.23" y2="444.23"/><text fill="#000000" font-family="sans-serif" font-size="14" lengthAdjust="spacing" textLength="62.1318" x="696.75" y="461.2251">id: string</text><text fill="#000000" font-family="sans-serif" font-size="14" lengthAdjust="spacing" textLength="78.5928" x="696.75" y="477.522">from: Node</text><text fill="#000000" font-family="sans-serif" font-size="14" lengthAdjust="spacing" textLength="59.7598" x="696.75" y="493.8189">to: Node</text><text fill="#000000" font-family="sans-serif" font-size="14" lengthAdjust="spacing" textLength="90.6445" x="696.75" y="510.1157">label?: string</text><text fill="#000000" font-family="sans-serif" font-size="14" lengthAdjust="spacing" textLength="145.1885" x="696.75" y="526.4126">type: "arrow" | "line"</text><text fill="#000000" font-family="sans-serif" font-size="14" lengthAdjust="spacing" textLength="164.5479" x="696.75" y="542.7095">style?: ConnectionStyle</text><line style="stroke:#181818;stroke-width:1;" x1="691.75" x2="866.2979" y1="550.0112" y2="550.0112"/><text fill="#000000" font-family="sans-serif" font-size="14" lengthAdjust="spacing" textLength="111.7949" x="696.75" y="567.0064">toJSON(): object</text></g><!--class Diagram--><g class="entity" data-qualified-name="Diagram" data-source-line="62" id="ent0016"><rect fill="#E3F2FD" height="178.375" rx="2.5" ry="2.5" style="stroke:#181818;stroke-width:0.5;" width="307.4287" x="645.31" y="156.86"/><ellipse cx="764.7202" cy="172.86" fill="#ADD1B2" rx="11" ry="11" style="stroke:#181818;stroke-width:1;"/><path d="M767.6889,178.5006 Q767.1108,178.7975 766.4702,178.9381 Q765.8295,179.0944 765.1264,179.0944 Q762.6264,179.0944 761.2983,177.4537 Q759.9858,175.7975 759.9858,172.6725 Q759.9858,169.5475 761.2983,167.8912 Q762.6264,166.235 765.1264,166.235 Q765.8295,166.235 766.4702,166.3912 Q767.1264,166.5475 767.6889,166.8444 L767.6889,169.5631 Q767.0639,168.985 766.4702,168.7194 Q765.8764,168.4381 765.2514,168.4381 Q763.9077,168.4381 763.2202,169.5162 Q762.5327,170.5787 762.5327,172.6725 Q762.5327,174.7662 763.2202,175.8444 Q763.9077,176.9069 765.2514,176.9069 Q765.8764,176.9069 766.4702,176.6412 Q767.0639,176.36 767.6889,175.7819 L767.6889,178.5006 Z " fill="#000000"/><text fill="#000000" font-family="sans-serif" font-size="14" lengthAdjust="spacing" textLength="60.1084" x="785.2202" y="177.7067">Diagram</text><line style="stroke:#181818;stroke-width:0.5;" x1="646.31" x2="951.7387" y1="188.86" y2="188.86"/><text fill="#000000" font-family="sans-serif" font-size="14" lengthAdjust="spacing" textLength="84.1572" x="651.31" y="205.8551">title?: string</text><text fill="#000000" font-family="sans-serif" font-size="14" lengthAdjust="spacing" textLength="187.8789" x="651.31" y="222.152">children: (Shape | Group)[]</text><text fill="#000000" font-family="sans-serif" font-size="14" lengthAdjust="spacing" textLength="183.7363" x="651.31" y="238.4489">connections: Connection[]</text><text fill="#000000" font-family="sans-serif" font-size="14" lengthAdjust="spacing" textLength="100.4404" x="651.31" y="254.7457">layout: Layout</text><line style="stroke:#181818;stroke-width:1;" x1="646.31" x2="951.7387" y1="262.0475" y2="262.0475"/><text fill="#000000" font-family="sans-serif" font-size="14" lengthAdjust="spacing" textLength="155.791" x="651.31" y="279.0426">add(el: Shape): Shape</text><text fill="#000000" font-family="sans-serif" font-size="14" lengthAdjust="spacing" textLength="184.4131" x="651.31" y="295.3395">group(label, opts?): Group</text><text fill="#000000" font-family="sans-serif" font-size="14" lengthAdjust="spacing" textLength="295.4287" x="651.31" y="311.6364">publish(engine: Engine): Promise&lt;string&gt;</text><text fill="#000000" font-family="sans-serif" font-size="14" lengthAdjust="spacing" textLength="111.7949" x="651.31" y="327.9332">toJSON(): object</text></g><!--class Layout--><g class="entity" data-qualified-name="Layout" data-source-line="76" id="ent0019"><rect fill="#B2DFDB" height="88.8594" rx="2.5" ry="2.5" style="stroke:#181818;stroke-width:0.5;" width="178.4072" x="901.82" y="448.84"/><ellipse cx="954.6721" cy="468.9728" fill="#ADD1B2" rx="11" ry="11" style="stroke:#181818;stroke-width:1;"/><path d="M957.6408,474.6134 Q957.0627,474.9103 956.4221,475.0509 Q955.7814,475.2072 955.0783,475.2072 Q952.5783,475.2072 951.2502,473.5666 Q949.9377,471.9103 949.9377,468.7853 Q949.9377,465.6603 951.2502,464.0041 Q952.5783,462.3478 955.0783,462.3478 Q955.7814,462.3478 956.4221,462.5041 Q957.0783,462.6603 957.6408,462.9572 L957.6408,465.6759 Q957.0158,465.0978 956.4221,464.8322 Q955.8283,464.5509 955.2033,464.5509 Q953.8596,464.5509 953.1721,465.6291 Q952.4846,466.6916 952.4846,468.7853 Q952.4846,470.8791 953.1721,471.9572 Q953.8596,473.0197 955.2033,473.0197 Q955.8283,473.0197 956.4221,472.7541 Q957.0158,472.4728 957.6408,471.8947 L957.6408,474.6134 Z " fill="#000000"/><text fill="#000000" font-family="sans-serif" font-size="12" font-style="italic" lengthAdjust="spacing" textLength="68.2031" x="973.1721" y="464.9787">&#171;interface&#187;</text><text fill="#000000" font-family="sans-serif" font-size="14" lengthAdjust="spacing" textLength="47.5918" x="983.4777" y="480.8039">Layout</text><line style="stroke:#181818;stroke-width:0.5;" x1="902.82" x2="1079.2272" y1="489.1056" y2="489.1056"/><line style="stroke:#181818;stroke-width:0.5;" x1="902.82" x2="1079.2272" y1="497.1056" y2="497.1056"/><text fill="#000000" font-family="sans-serif" font-size="14" lengthAdjust="spacing" textLength="166.4072" x="907.82" y="514.1007">apply(d: Diagram): void</text><text fill="#000000" font-family="sans-serif" font-size="14" lengthAdjust="spacing" textLength="111.7949" x="907.82" y="530.3976">toJSON(): object</text></g><!--class Engine--><g class="entity" data-qualified-name="Engine" data-source-line="79" id="ent0022"><rect fill="#C8E6C9" height="80.5938" rx="2.5" ry="2.5" style="stroke:#181818;stroke-width:0.5;" width="232.1104" x="1208.97" y="452.97"/><ellipse cx="1296.7845" cy="468.97" fill="#A9DCDF" rx="11" ry="11" style="stroke:#181818;stroke-width:1;"/><path d="M1296.8938,464.3137 L1295.7376,469.3919 L1298.0657,469.3919 L1296.8938,464.3137 Z M1295.4095,462.0794 L1298.3938,462.0794 L1301.7532,474.47 L1299.3001,474.47 L1298.5345,471.4075 L1295.2532,471.4075 L1294.5032,474.47 L1292.0657,474.47 L1295.4095,462.0794 Z " fill="#000000"/><text fill="#000000" font-family="sans-serif" font-size="14" font-style="italic" lengthAdjust="spacing" textLength="47.9814" x="1317.2845" y="473.8167">Engine</text><line style="stroke:#181818;stroke-width:0.5;" x1="1209.97" x2="1440.0804" y1="484.97" y2="484.97"/><text fill="#000000" font-family="sans-serif" font-size="14" lengthAdjust="spacing" textLength="89.0586" x="1214.97" y="501.9651">name: string</text><line style="stroke:#181818;stroke-width:1;" x1="1209.97" x2="1440.0804" y1="509.2669" y2="509.2669"/><text fill="#000000" font-family="sans-serif" font-size="14" font-style="italic" lengthAdjust="spacing" textLength="220.1104" x="1214.97" y="526.262">render(d: Diagram): Uint8Array</text></g><!--class CleanEngine--><g class="entity" data-qualified-name="CleanEngine" data-source-line="85" id="ent0023"><rect fill="#A5D6A7" height="96.8906" rx="2.5" ry="2.5" style="stroke:#181818;stroke-width:0.5;" width="166.3281" x="1335.86" y="724.65"/><ellipse cx="1371.8373" cy="740.65" fill="#ADD1B2" rx="11" ry="11" style="stroke:#181818;stroke-width:1;"/><path d="M1374.806,746.2906 Q1374.2279,746.5875 1373.5873,746.7281 Q1372.9467,746.8844 1372.2435,746.8844 Q1369.7435,746.8844 1368.4154,745.2437 Q1367.1029,743.5875 1367.1029,740.4625 Q1367.1029,737.3375 1368.4154,735.6812 Q1369.7435,734.025 1372.2435,734.025 Q1372.9467,734.025 1373.5873,734.1812 Q1374.2435,734.3375 1374.806,734.6344 L1374.806,737.3531 Q1374.181,736.775 1373.5873,736.5094 Q1372.9935,736.2281 1372.3685,736.2281 Q1371.0248,736.2281 1370.3373,737.3062 Q1369.6498,738.3687 1369.6498,740.4625 Q1369.6498,742.5562 1370.3373,743.6344 Q1371.0248,744.6969 1372.3685,744.6969 Q1372.9935,744.6969 1373.5873,744.4312 Q1374.181,744.15 1374.806,743.5719 L1374.806,746.2906 Z " fill="#000000"/><text fill="#000000" font-family="sans-serif" font-size="14" lengthAdjust="spacing" textLength="87.7119" x="1390.4989" y="745.4967">CleanEngine</text><line style="stroke:#181818;stroke-width:0.5;" x1="1336.86" x2="1501.1881" y1="756.65" y2="756.65"/><text fill="#000000" font-family="sans-serif" font-size="14" lengthAdjust="spacing" textLength="154.3281" x="1341.86" y="773.6451">font = 1 (Nunito Bold)</text><line style="stroke:#181818;stroke-width:1;" x1="1336.86" x2="1501.1881" y1="780.9469" y2="780.9469"/><text fill="#000000" font-family="sans-serif" font-size="14" lengthAdjust="spacing" textLength="60.8672" x="1341.86" y="797.942">solid fills</text><text fill="#000000" font-family="sans-serif" font-size="14" lengthAdjust="spacing" textLength="89.0928" x="1341.86" y="814.2389">crisp strokes</text></g><!--class RoughEngine--><g class="entity" data-qualified-name="RoughEngine" data-source-line="92" id="ent0024"><rect fill="#A5D6A7" height="129.4844" rx="2.5" ry="2.5" style="stroke:#181818;stroke-width:0.5;" width="225.4453" x="1537.3" y="708.35"/><ellipse cx="1599.319" cy="724.35" fill="#ADD1B2" rx="11" ry="11" style="stroke:#181818;stroke-width:1;"/><path d="M1602.2878,729.9906 Q1601.7097,730.2875 1601.069,730.4281 Q1600.4284,730.5844 1599.7253,730.5844 Q1597.2253,730.5844 1595.8972,728.9437 Q1594.5847,727.2875 1594.5847,724.1625 Q1594.5847,721.0375 1595.8972,719.3812 Q1597.2253,717.725 1599.7253,717.725 Q1600.4284,717.725 1601.069,717.8812 Q1601.7253,718.0375 1602.2878,718.3344 L1602.2878,721.0531 Q1601.6628,720.475 1601.069,720.2094 Q1600.4753,719.9281 1599.8503,719.9281 Q1598.5065,719.9281 1597.819,721.0062 Q1597.1315,722.0687 1597.1315,724.1625 Q1597.1315,726.2562 1597.819,727.3344 Q1598.5065,728.3969 1599.8503,728.3969 Q1600.4753,728.3969 1601.069,728.1312 Q1601.6628,727.85 1602.2878,727.2719 L1602.2878,729.9906 Z " fill="#000000"/><text fill="#000000" font-family="sans-serif" font-size="14" lengthAdjust="spacing" textLength="92.9072" x="1619.819" y="729.1967">RoughEngine</text><line style="stroke:#181818;stroke-width:0.5;" x1="1538.3" x2="1761.7453" y1="740.35" y2="740.35"/><text fill="#000000" font-family="sans-serif" font-size="14" lengthAdjust="spacing" textLength="136.835" x="1543.3" y="757.3451">roughness: number</text><text fill="#000000" font-family="sans-serif" font-size="14" lengthAdjust="spacing" textLength="97.2139" x="1543.3" y="773.642">seed: number</text><text fill="#000000" font-family="sans-serif" font-size="14" lengthAdjust="spacing" textLength="213.4453" x="1543.3" y="789.9389">font = 0 (Architects Daughter)</text><line style="stroke:#181818;stroke-width:1;" x1="1538.3" x2="1761.7453" y1="797.2406" y2="797.2406"/><text fill="#000000" font-family="sans-serif" font-size="14" lengthAdjust="spacing" textLength="93.8643" x="1543.3" y="814.2357">wobble paths</text><text fill="#000000" font-family="sans-serif" font-size="14" lengthAdjust="spacing" textLength="85.6064" x="1543.3" y="830.5326">hachure fills</text></g><!--class Sugiyama--><g class="entity" data-qualified-name="Sugiyama" data-source-line="104" id="ent0027"><rect fill="#80CBC4" height="96.8906" rx="2.5" ry="2.5" style="stroke:#181818;stroke-width:0.5;" width="246.5615" x="797.74" y="724.65"/><ellipse cx="881.9622" cy="740.65" fill="#ADD1B2" rx="11" ry="11" style="stroke:#181818;stroke-width:1;"/><path d="M884.9309,746.2906 Q884.3528,746.5875 883.7122,746.7281 Q883.0715,746.8844 882.3684,746.8844 Q879.8684,746.8844 878.5403,745.2437 Q877.2278,743.5875 877.2278,740.4625 Q877.2278,737.3375 878.5403,735.6812 Q879.8684,734.025 882.3684,734.025 Q883.0715,734.025 883.7122,734.1812 Q884.3684,734.3375 884.9309,734.6344 L884.9309,737.3531 Q884.3059,736.775 883.7122,736.5094 Q883.1184,736.2281 882.4934,736.2281 Q881.1497,736.2281 880.4622,737.3062 Q879.7747,738.3687 879.7747,740.4625 Q879.7747,742.5562 880.4622,743.6344 Q881.1497,744.6969 882.4934,744.6969 Q883.1184,744.6969 883.7122,744.4312 Q884.3059,744.15 884.9309,743.5719 L884.9309,746.2906 Z " fill="#000000"/><text fill="#000000" font-family="sans-serif" font-size="14" lengthAdjust="spacing" textLength="69.6172" x="902.4622" y="745.4967">Sugiyama</text><line style="stroke:#181818;stroke-width:0.5;" x1="798.74" x2="1043.3015" y1="756.65" y2="756.65"/><text fill="#000000" font-family="sans-serif" font-size="14" lengthAdjust="spacing" textLength="234.5615" x="803.74" y="773.6451">direction: "TB" | "LR" | "BT" | "RL"</text><text fill="#000000" font-family="sans-serif" font-size="14" lengthAdjust="spacing" textLength="117.9131" x="803.74" y="789.942">spacing: number</text><line style="stroke:#181818;stroke-width:1;" x1="798.74" x2="1043.3015" y1="797.2437" y2="797.2437"/><text fill="#000000" font-family="sans-serif" font-size="14" lengthAdjust="spacing" textLength="166.4072" x="803.74" y="814.2389">apply(d: Diagram): void</text></g><!--class WasmCanvas--><g class="entity" data-qualified-name="WasmCanvas" data-source-line="118" id="ent0029"><rect fill="#FFCDD2" height="202.9375" rx="2.5" ry="2.5" style="stroke:#181818;stroke-width:0.5;" width="568.8418" x="1134.6" y="971.87"/><ellipse cx="1367.4013" cy="992.0028" fill="#ADD1B2" rx="11" ry="11" style="stroke:#181818;stroke-width:1;"/><path d="M1370.37,997.6434 Q1369.7919,997.9403 1369.1513,998.0809 Q1368.5106,998.2372 1367.8075,998.2372 Q1365.3075,998.2372 1363.9794,996.5966 Q1362.6669,994.9403 1362.6669,991.8153 Q1362.6669,988.6903 1363.9794,987.0341 Q1365.3075,985.3778 1367.8075,985.3778 Q1368.5106,985.3778 1369.1513,985.5341 Q1369.8075,985.6903 1370.37,985.9872 L1370.37,988.7059 Q1369.745,988.1278 1369.1513,987.8622 Q1368.5575,987.5809 1367.9325,987.5809 Q1366.5888,987.5809 1365.9013,988.6591 Q1365.2138,989.7216 1365.2138,991.8153 Q1365.2138,993.9091 1365.9013,994.9872 Q1366.5888,996.0497 1367.9325,996.0497 Q1368.5575,996.0497 1369.1513,995.7841 Q1369.745,995.5028 1370.37,994.9247 L1370.37,997.6434 Z " fill="#000000"/><text fill="#000000" font-family="sans-serif" font-size="12" font-style="italic" lengthAdjust="spacing" textLength="41.584" x="1414.4789" y="988.0087">&#171;Rust&#187;</text><text fill="#000000" font-family="sans-serif" font-size="14" lengthAdjust="spacing" textLength="94.7393" x="1387.9013" y="1003.8339">WasmCanvas</text><line style="stroke:#181818;stroke-width:0.5;" x1="1135.6" x2="1702.4418" y1="1012.1356" y2="1012.1356"/><line style="stroke:#181818;stroke-width:0.5;" x1="1135.6" x2="1702.4418" y1="1020.1356" y2="1020.1356"/><text fill="#000000" font-family="sans-serif" font-size="14" lengthAdjust="spacing" textLength="140.793" x="1140.6" y="1037.1307">new(w: u32, h: u32)</text><text fill="#000000" font-family="sans-serif" font-size="14" lengthAdjust="spacing" textLength="115.7871" x="1140.6" y="1053.4276">clear(color: u32)</text><text fill="#000000" font-family="sans-serif" font-size="14" lengthAdjust="spacing" textLength="277.1768" x="1140.6" y="1069.7245">fill_path(segs: Float64Array, color: u32)</text><text fill="#000000" font-family="sans-serif" font-size="14" lengthAdjust="spacing" textLength="356.665" x="1140.6" y="1086.0214">stroke_path(segs: Float64Array, color: u32, w: f32)</text><text fill="#000000" font-family="sans-serif" font-size="14" lengthAdjust="spacing" textLength="556.8418" x="1140.6" y="1102.3182">stroke_path_dashed(segs: Float64Array, color: u32, w: f32, dash: Float32Array)</text><text fill="#000000" font-family="sans-serif" font-size="14" lengthAdjust="spacing" textLength="466.7852" x="1140.6" y="1118.6151">draw_text(text: string, x: f32, y: f32, size: f32, color: u32, font: u8)</text><text fill="#000000" font-family="sans-serif" font-size="14" lengthAdjust="spacing" textLength="454.3301" x="1140.6" y="1134.912">measure_text(text: string, size: f32, font: u8): [number, number]</text><text fill="#000000" font-family="sans-serif" font-size="14" lengthAdjust="spacing" textLength="143.1514" x="1140.6" y="1151.2089">to_png(): Uint8Array</text><text fill="#000000" font-family="sans-serif" font-size="14" lengthAdjust="spacing" textLength="198.6455" x="1140.6" y="1167.5057">to_image_data(): Uint8Array</text></g><!--class Diagramz--><g class="entity" data-qualified-name="Diagramz" data-source-line="130" id="ent0030"><rect fill="#E3F2FD" height="88.8594" rx="2.5" ry="2.5" style="stroke:#181818;stroke-width:0.5;" width="231.9258" x="683.06" y="7"/><ellipse cx="761.0444" cy="27.1328" fill="#ADD1B2" rx="11" ry="11" style="stroke:#181818;stroke-width:1;"/><path d="M764.0131,32.7734 Q763.435,33.0703 762.7944,33.2109 Q762.1538,33.3672 761.4506,33.3672 Q758.9506,33.3672 757.6225,31.7266 Q756.31,30.0703 756.31,26.9453 Q756.31,23.8203 757.6225,22.1641 Q758.9506,20.5078 761.4506,20.5078 Q762.1538,20.5078 762.7944,20.6641 Q763.4506,20.8203 764.0131,21.1172 L764.0131,23.8359 Q763.3881,23.2578 762.7944,22.9922 Q762.2006,22.7109 761.5756,22.7109 Q760.2319,22.7109 759.5444,23.7891 Q758.8569,24.8516 758.8569,26.9453 Q758.8569,29.0391 759.5444,30.1172 Q760.2319,31.1797 761.5756,31.1797 Q762.2006,31.1797 762.7944,30.9141 Q763.3881,30.6328 764.0131,30.0547 L764.0131,32.7734 Z " fill="#000000"/><text fill="#000000" font-family="sans-serif" font-size="12" font-style="italic" lengthAdjust="spacing" textLength="47.6309" x="791.4575" y="23.1387">&#171;static&#187;</text><text fill="#000000" font-family="sans-serif" font-size="14" lengthAdjust="spacing" textLength="67.457" x="781.5444" y="38.9639">Diagramz</text><line style="stroke:#181818;stroke-width:0.5;" x1="684.06" x2="913.9858" y1="47.2656" y2="47.2656"/><line style="stroke:#181818;stroke-width:0.5;" x1="684.06" x2="913.9858" y1="55.2656" y2="55.2656"/><text fill="#000000" font-family="sans-serif" font-size="14" lengthAdjust="spacing" text-decoration="underline" textLength="188.1523" x="689.06" y="72.2607">toCode(json: string): string</text><text fill="#000000" font-family="sans-serif" font-size="14" lengthAdjust="spacing" text-decoration="underline" textLength="219.9258" x="689.06" y="88.5576">fromJson(json: string): Diagram</text></g><g class="entity" data-qualified-name="N1" data-source-line="142" id="ent0036"><path d="M6,730.26 L6,815.9241 A0,0 0 0 0 6,815.9241 L155.72,815.9241 L229.99,1049.03 L163.72,815.9241 L288.041,815.9241 A0,0 0 0 0 288.041,815.9241 L288.041,740.26 L278.041,730.26 L6,730.26 A0,0 0 0 0 6,730.26" fill="#FEFFDD" style="stroke:#181818;stroke-width:0.5;"/><path d="M278.041,730.26 L278.041,740.26 L288.041,740.26 L278.041,730.26" fill="#FEFFDD" style="stroke:#181818;stroke-width:0.5;"/><text fill="#000000" font-family="sans-serif" font-size="13" font-weight="bold" lengthAdjust="spacing" textLength="239.1416" x="12" y="747.3269">Factory functions (shapes/basic)</text><text fill="#000000" font-family="sans-serif" font-size="13" lengthAdjust="spacing" textLength="261.041" x="12" y="762.4597">rectangle(label, opts?): RectangleShape</text><text fill="#000000" font-family="sans-serif" font-size="13" lengthAdjust="spacing" textLength="217.9722" x="12" y="777.5925">ellipse(label, opts?): EllipseShape</text><text fill="#000000" font-family="sans-serif" font-size="13" lengthAdjust="spacing" textLength="249.6787" x="12" y="792.7253">diamond(label, opts?): DiamondShape</text><text fill="#000000" font-family="sans-serif" font-size="13" lengthAdjust="spacing" textLength="188.6587" x="12" y="807.8581">text(label, opts?): TextShape</text></g><g class="entity" data-qualified-name="N2" data-source-line="152" id="ent0038"><path d="M1079.67,730.26 L1079.67,815.9241 A0,0 0 0 0 1079.67,815.9241 L1218.34,815.9241 L1341.68,971.62 L1226.34,815.9241 L1300.38,815.9241 A0,0 0 0 0 1300.38,815.9241 L1300.38,740.26 L1290.38,730.26 L1079.67,730.26 A0,0 0 0 0 1079.67,730.26" fill="#FEFFDD" style="stroke:#181818;stroke-width:0.5;"/><path d="M1290.38,730.26 L1290.38,740.26 L1300.38,740.26 L1290.38,730.26" fill="#FEFFDD" style="stroke:#181818;stroke-width:0.5;"/><text fill="#000000" font-family="sans-serif" font-size="13" font-weight="bold" lengthAdjust="spacing" textLength="199.71" x="1085.67" y="747.3269">Path format (Float64Array)</text><text fill="#000000" font-family="sans-serif" font-size="13" lengthAdjust="spacing" textLength="110.1001" x="1085.67" y="762.4597">0, x, y = MoveTo</text><text fill="#000000" font-family="sans-serif" font-size="13" lengthAdjust="spacing" textLength="102.3306" x="1085.67" y="777.5925">1, x, y = LineTo</text><text fill="#000000" font-family="sans-serif" font-size="13" lengthAdjust="spacing" textLength="187.8208" x="1085.67" y="792.7253">2, x1,y1,x2,y2,x,y = CubicTo</text><text fill="#000000" font-family="sans-serif" font-size="13" lengthAdjust="spacing" textLength="62.8418" x="1085.67" y="807.8581">3 = Close</text></g><!--reverse link Node to Shape--><g class="link" data-entity-1="ent0002" data-entity-2="ent0003" data-link-type="extension" data-source-line="38" id="lnk5"><path codeLine="38" d="M536.5112,557.6293 C553.8412,587.7293 568.08,612.45 590.24,650.92" fill="none" id="Node-backto-Shape" style="stroke:#181818;stroke-width:1;stroke-dasharray:7,7;"/><polygon fill="none" points="527.53,542.03,531.3115,560.623,541.711,554.6355,527.53,542.03" style="stroke:#181818;stroke-width:1;"/></g><!--reverse link Node to Group--><g class="link" data-entity-1="ent0002" data-entity-2="ent0004" data-link-type="extension" data-source-line="39" id="lnk6"><path codeLine="39" d="M491.1047,559.8555 C487.4547,583.8655 484.91,595.46 478.02,621.31 C471.85,644.46 463.61,669.08 455.4,691.56" fill="none" id="Node-backto-Group" style="stroke:#181818;stroke-width:1;stroke-dasharray:7,7;"/><polygon fill="none" points="493.81,542.06,485.1729,558.9538,497.0366,560.7573,493.81,542.06" style="stroke:#181818;stroke-width:1;"/></g><!--reverse link Group to Node--><g class="link" data-entity-1="ent0004" data-entity-2="ent0002" data-link-type="aggregation" data-source-line="77" id="lnk21"><path codeLine="77" d="M407.0267,679.9187 C404.7467,651.6087 406.68,631.93 416.02,604.31 C423.68,581.66 438.07,559.99 452.81,541.96" fill="none" id="Group-backto-Node" style="stroke:#181818;stroke-width:1;"/><polygon fill="none" points="407.99,691.88,411.4954,685.5783,407.0267,679.9187,403.5212,686.2205,407.99,691.88" style="stroke:#181818;stroke-width:1;"/><text fill="#000000" font-family="sans-serif" font-size="13" lengthAdjust="spacing" textLength="52.4443" x="417.02" y="617.3769">children</text><text fill="#000000" font-family="sans-serif" font-size="13" lengthAdjust="spacing" textLength="23.0356" x="421.5568" y="561.9372">0..*</text></g><!--reverse link Shape to RectangleShape--><g class="link" data-entity-1="ent0003" data-entity-2="ent0007" data-link-type="extension" data-source-line="46" id="lnk11"><path codeLine="46" d="M543.4732,892.5823 C537.7932,897.4423 545.74,890.44 540.02,894.87 C516.71,912.94 355.53,1005.08 278.21,1049" fill="none" id="Shape-backto-RectangleShape" style="stroke:#181818;stroke-width:1;"/><polygon fill="none" points="557.15,880.88,539.5724,888.0234,547.374,897.1413,557.15,880.88" style="stroke:#181818;stroke-width:1;"/></g><!--reverse link Shape to EllipseShape--><g class="link" data-entity-1="ent0003" data-entity-2="ent0008" data-link-type="extension" data-source-line="47" id="lnk12"><path codeLine="47" d="M584.4354,910.7198 C552.6254,968.2098 526.33,1015.75 507.94,1048.99" fill="none" id="Shape-backto-EllipseShape" style="stroke:#181818;stroke-width:1;"/><polygon fill="none" points="593.15,894.97,579.1855,907.8149,589.6854,913.6247,593.15,894.97" style="stroke:#181818;stroke-width:1;"/></g><!--reverse link Shape to DiamondShape--><g class="link" data-entity-1="ent0003" data-entity-2="ent0009" data-link-type="extension" data-source-line="48" id="lnk13"><path codeLine="48" d="M660.02,912.97 C660.02,970.46 660.02,1015.75 660.02,1048.99" fill="none" id="Shape-backto-DiamondShape" style="stroke:#181818;stroke-width:1;"/><polygon fill="none" points="660.02,894.97,654.02,912.97,666.02,912.97,660.02,894.97" style="stroke:#181818;stroke-width:1;"/></g><!--reverse link Shape to TextShape--><g class="link" data-entity-1="ent0003" data-entity-2="ent0010" data-link-type="extension" data-source-line="49" id="lnk14"><path codeLine="49" d="M732.485,910.8766 C762.935,968.3666 788.04,1015.75 805.65,1048.99" fill="none" id="Shape-backto-TextShape" style="stroke:#181818;stroke-width:1;"/><polygon fill="none" points="724.06,894.97,727.1828,913.6849,737.7872,908.0682,724.06,894.97" style="stroke:#181818;stroke-width:1;"/></g><!--reverse link Diagram to Node--><g class="link" data-entity-1="ent0016" data-entity-2="ent0002" data-link-type="aggregation" data-source-line="74" id="lnk17"><path codeLine="74" d="M681.7907,343.1889 C636.9607,379.9489 596,413.55 558.29,444.48" fill="none" id="Diagram-backto-Node" style="stroke:#181818;stroke-width:1;"/><polygon fill="none" points="691.07,335.58,683.8941,336.2913,681.7907,343.1889,688.9667,342.4775,691.07,335.58" style="stroke:#181818;stroke-width:1;"/><text fill="#000000" font-family="sans-serif" font-size="13" lengthAdjust="spacing" textLength="52.4443" x="650.02" y="378.2969">children</text><text fill="#000000" font-family="sans-serif" font-size="13" lengthAdjust="spacing" textLength="23.0356" x="541.8699" y="433.6397">0..*</text></g><!--reverse link Diagram to Connection--><g class="link" data-entity-1="ent0016" data-entity-2="ent0015" data-link-type="aggregation" data-source-line="75" id="lnk18"><path codeLine="75" d="M790.8229,347.5402 C788.7829,372.5102 787.56,387.56 785.57,412.02" fill="none" id="Diagram-backto-Connection" style="stroke:#181818;stroke-width:1;"/><polygon fill="none" points="791.8,335.58,787.3247,341.2344,790.8229,347.5402,795.2982,341.8858,791.8,335.58" style="stroke:#181818;stroke-width:1;"/><text fill="#000000" font-family="sans-serif" font-size="13" lengthAdjust="spacing" textLength="23.0356" x="762.1304" y="401.1886">0..*</text></g><!--reverse link Diagram to Layout--><g class="link" data-entity-1="ent0016" data-entity-2="ent0019" data-link-type="composition" data-source-line="76" id="lnk20"><path codeLine="76" d="M875.7372,345.0289 C905.8072,383.4389 932.28,417.25 956.81,448.57" fill="none" id="Diagram-backto-Layout" style="stroke:#181818;stroke-width:1;"/><polygon fill="#181818" points="868.34,335.58,868.889,342.7702,875.7372,345.0289,875.1882,337.8387,868.34,335.58" style="stroke:#181818;stroke-width:1;"/><text fill="#000000" font-family="sans-serif" font-size="13" lengthAdjust="spacing" textLength="8.271" x="942.9793" y="437.654">1</text></g><!--reverse link Engine to CleanEngine--><g class="link" data-entity-1="ent0022" data-entity-2="ent0023" data-link-type="extension" data-source-line="101" id="lnk25"><path codeLine="101" d="M1344.1585,550.8306 C1361.1385,601.0206 1384.65,670.5 1402.86,724.33" fill="none" id="Engine-backto-CleanEngine" style="stroke:#181818;stroke-width:1;"/><polygon fill="none" points="1338.39,533.78,1338.4749,552.7535,1349.842,548.9078,1338.39,533.78" style="stroke:#181818;stroke-width:1;"/></g><!--reverse link Engine to RoughEngine--><g class="link" data-entity-1="ent0022" data-entity-2="ent0024" data-link-type="extension" data-source-line="102" id="lnk26"><path codeLine="102" d="M1390.4995,545.0807 C1430.2995,576.2607 1472.36,610.07 1520.02,651.31 C1540.75,669.25 1562.78,689.32 1582.7,707.86" fill="none" id="Engine-backto-RoughEngine" style="stroke:#181818;stroke-width:1;"/><polygon fill="none" points="1376.33,533.98,1386.7993,549.8038,1394.1997,540.3575,1376.33,533.98" style="stroke:#181818;stroke-width:1;"/></g><!--reverse link Layout to Sugiyama--><g class="link" data-entity-1="ent0019" data-entity-2="ent0027" data-link-type="extension" data-source-line="116" id="lnk28"><path codeLine="116" d="M975.6096,555.4438 C962.8196,606.1738 946.22,672.09 933.03,724.44" fill="none" id="Layout-backto-Sugiyama" style="stroke:#181818;stroke-width:1;stroke-dasharray:7,7;"/><polygon fill="none" points="980.01,537.99,969.7916,553.977,981.4275,556.9106,980.01,537.99" style="stroke:#181818;stroke-width:1;"/></g><!--link CleanEngine to WasmCanvas--><g class="link" data-entity-1="ent0023" data-entity-2="ent0029" data-link-type="dependency" data-source-line="135" id="lnk31"><path codeLine="135" d="M1419.02,822.01 C1419.02,862.19 1419.02,914.92 1419.02,965.41" fill="none" id="CleanEngine-to-WasmCanvas" style="stroke:#181818;stroke-width:1;stroke-dasharray:7,7;"/><polygon fill="#181818" points="1419.02,971.41,1423.02,962.41,1419.02,966.41,1415.02,962.41,1419.02,971.41" style="stroke:#181818;stroke-width:1;"/><text fill="#000000" font-family="sans-serif" font-size="13" lengthAdjust="spacing" textLength="29.7832" x="1420.02" y="937.9369">uses</text></g><!--link RoughEngine to WasmCanvas--><g class="link" data-entity-1="ent0024" data-entity-2="ent0029" data-link-type="dependency" data-source-line="136" id="lnk32"><path codeLine="136" d="M1600.47,838.07 C1570.37,876.93 1534.974,922.6364 1500.794,966.7664" fill="none" id="RoughEngine-to-WasmCanvas" style="stroke:#181818;stroke-width:1;stroke-dasharray:7,7;"/><polygon fill="#181818" points="1497.12,971.51,1505.7934,966.844,1500.1817,967.557,1499.4687,961.9453,1497.12,971.51" style="stroke:#181818;stroke-width:1;"/><text fill="#000000" font-family="sans-serif" font-size="13" lengthAdjust="spacing" textLength="29.7832" x="1528.02" y="937.9369">uses</text></g><!--link Engine to Shape--><g class="link" data-entity-1="ent0022" data-entity-2="ent0003" data-link-type="dependency" data-source-line="137" id="lnk33"><path codeLine="137" d="M1219.5,533.98 C1181.49,547.62 1138.08,562.43 1098.02,574.31 C958.6,615.65 906.71,579.93 780.02,651.31 C774.23,654.57 773.442,654.7687 767.862,658.6587" fill="none" id="Engine-to-Shape" style="stroke:#181818;stroke-width:1;stroke-dasharray:7,7;"/><polygon fill="#181818" points="762.94,662.09,772.6105,660.2244,767.0417,659.2306,768.0355,653.6617,762.94,662.09" style="stroke:#181818;stroke-width:1;"/><text fill="#000000" font-family="sans-serif" font-size="13" lengthAdjust="spacing" textLength="85.2173" x="913.02" y="617.3769">reads outline</text></g><!--link Diagram to Engine--><g class="link" data-entity-1="ent0016" data-entity-2="ent0022" data-link-type="dependency" data-source-line="138" id="lnk34"><path codeLine="138" d="M952.93,318.8 C1046.46,362.4 1156.9321,413.9045 1234.2921,449.9745" fill="none" id="Diagram-to-Engine" style="stroke:#181818;stroke-width:1;stroke-dasharray:7,7;"/><polygon fill="#181818" points="1239.73,452.51,1233.2634,445.0814,1235.1984,450.3971,1229.8828,452.332,1239.73,452.51" style="stroke:#181818;stroke-width:1;"/><text fill="#000000" font-family="sans-serif" font-size="13" lengthAdjust="spacing" textLength="115.0576" x="1078.02" y="378.2969">publish delegates</text></g><!--link Diagramz to Diagram--><g class="link" data-entity-1="ent0030" data-entity-2="ent0016" data-link-type="dependency" data-source-line="139" id="lnk35"><path codeLine="139" d="M799.02,96.13 C799.02,114.12 799.02,129.63 799.02,150.63" fill="none" id="Diagramz-to-Diagram" style="stroke:#181818;stroke-width:1;stroke-dasharray:7,7;"/><polygon fill="#181818" points="799.02,156.63,803.02,147.63,799.02,151.63,795.02,147.63,799.02,156.63" style="stroke:#181818;stroke-width:1;"/></g><?plantuml-src hLPRJ-Cu57xlhx3AIuf2joqiorGierv7Es8P1ApsOOIGcxY9PzmuiXtQ3F3Vz_YIricsAqPQa30v_doktpcs_4wp70kyGX73KewK4dHHAF97nBDx-eEWNajk8JB5CL_JB45Bp2HfjMYcY5ZYYA0R7XDqDElfN_JIGl13uo6Ie2vBp2V32y9gafCJioWUA2mIeeP6IsYH7qF4SoK_TePemhECH8hohFNMQk45gC2HiWwZ-nJdslB5R3G_Vw_bpSSXoehLWWZpMTO_rpHMQLsK4fgagYwJgcG4HFTw_GA--a6zL6w-8LueHZCIh4EKGZHpnh4wFni9WSicD68ql-MGLGCE4SuIHk3Crqs8oiScsiHrosMbsKF5P8aBfdG5GQxt7rskFzz_kGa0p1VV8ASweJQFdmGlyf_DOvHI5WkI3L5Ww_1gzNI-FjPIP8GcJtwES1m7Mg4vsd6hsKaqFZ3sTZGmIWv6OGXu-ThjEZMxRtlEXNa7S9DLnvjfVt8s--0sPmpoB_TkJIbUyIpUj_L0DgekRzdFozUJauP1VyUtvijzKxvyQwUAPTSNw6Wydixcu_rrMmg-ihtbikTzs5whmLMP0sdQM0Y-RaD5svgzxLezTvR_LTJ338Eu4Zr5ZcQdyy5ywdnLL1cLFy6gQ6jT-gwuNOPBwBWXkZRh_yAtl5WmAjE0P0caOeXcPWN8BMIMId9fdRywc80gT0vbRFUwtUEs7PZ3RQpx8DxSgtQFzMw_NGLdc_O_j3QdfVKS7KqkPkUJ3wu46LwHVOFP6pMWAoOY05uvJo2yls1ENTWnjgtnX16SLKP6lqxFHxyv8qkUAVGxwgFWfiYeucZCMTpnpKdEQ8oMb34xIID1PQxTuj-9t9cuuqMIxZKXz4v6fAoFQKBYci1vqaF1I42Y5AGOo8dXB5ncDO_MVB5W1ELOfTQb54Tf8OXp4bnoVfZ-z6AloJs7gnZkYuIMU8NHqKLlCfwSkG1YAcozeVqUngRthk_CCdumozsrwyCSHr2iMbWLoVESbVL2FNCQx_9dgOCkBxUNzzKLp8_1T3wjviSX7OVeNQaqqzU5Lfdx6ylL16VFM8B9kq8gRMq-dqodWuf-P1siXwWu7S0rPLPRX0ZoAOA8CouygKxzawv884aYwzTfY9feovxtu4C4FYptd7kAiKn9_CxZ8T9mXpiT69nL6GkyVb8mmmFzf-gt46tSkTAjqjpPvbzVlMOj_7jXbQq8ba34VVgyyzipy0QmJ0aTOwhNm5EU9K6zbzq6NU64GEmA1mTwtP7Z1zHLAgnef2jRc-qlLlu6-YOmc89lKbFREjgfJPmjKjzLdm7Mn3fZshe_OxhTAvzX4Ao4MU6FYFq8RzDUCKCOSJYMrMDjEt0rme67rJq0hoj64gn0ppO76bVvsCgu8WYCtVHDSCV7SnYYN9HeMMJstaA1r6RbBmiiQTGvFhO3h7ehDA-YnYD2OubzFJIHjKU5dIdcDT74rHuPfkIQIGtGxiK1un_fgE2TrOTOcmxj8XwuY6-XSu1_OeKL2locgMBj0VE1z328_-JFv84RONyhl8QCEo4GUTCFotwu6OJb8Do4UdzIB6Za0AVwct5PStEWtTmL_Xy0?></g></svg>