<svg xmlns="http://www.w3.org/2000/svg" width="791" height="730" viewBox="0 0 791 730">
<rect width="791" height="730" fill="#fff"/>
<path d="M425.48,548.72L424.09,364.73L337.13,365.72L338.48,180.84" fill="none" stroke="rgb(51,51,51)" stroke-width="1.50" stroke-linecap="round"/>
<path d="M424.16,547.34L425.56,366.03L337.37,365.52L338.24,183.39" fill="none" stroke="rgb(51,51,51)" stroke-width="1.50" stroke-linecap="round"/>
<path d="M334.88,171.19L337.93,180.69L342.24,169.85" fill="none" stroke="rgb(51,51,51)" stroke-width="2.00" stroke-linecap="round"/>
<path d="M333.14,171.14L337.61,181.74L341.44,171.50" fill="none" stroke="rgb(51,51,51)" stroke-width="2.00" stroke-linecap="round"/>
<path d="M364.55,346.00L399.34,346.00L399.34,364.00L364.55,364.00Z" fill="rgba(248,248,248,0.878)" stroke="none"/>
<text x="381.94" y="357.00" fill="rgb(0,0,0)" font-family="&quot;Architects Daughter&quot;, cursive" font-size="12.0" text-anchor="middle" dominant-baseline="central">Uses</text>
<path d="M436.13,182.01L437.13,241.56L267.30,243.40L267.63,300.79" fill="none" stroke="rgb(51,51,51)" stroke-width="1.50" stroke-linecap="round"/>
<path d="M437.35,183.47L436.80,241.77L268.05,243.35L266.23,302.73" fill="none" stroke="rgb(51,51,51)" stroke-width="1.50" stroke-linecap="round"/>
<path d="M270.53,312.75L268.25,301.54L261.74,314.00" fill="none" stroke="rgb(51,51,51)" stroke-width="2.00" stroke-linecap="round"/>
<path d="M271.40,311.89L268.01,301.89L263.17,311.93" fill="none" stroke="rgb(51,51,51)" stroke-width="2.00" stroke-linecap="round"/>
<path d="M280.03,223.00L422.82,223.00L422.82,241.00L280.03,241.00Z" fill="rgba(248,248,248,0.878)" stroke="none"/>
<text x="351.43" y="234.00" fill="rgb(0,0,0)" font-family="&quot;Architects Daughter&quot;, cursive" font-size="12.0" text-anchor="middle" dominant-baseline="central">Sends e-mails using</text>
<path d="M534.57,180.78L534.34,241.29L605.66,242.95L604.68,301.17" fill="none" stroke="rgb(51,51,51)" stroke-width="1.50" stroke-linecap="round"/>
<path d="M534.04,183.10L532.34,240.68L606.79,242.32L606.53,302.85" fill="none" stroke="rgb(51,51,51)" stroke-width="1.50" stroke-linecap="round"/>
<path d="M608.95,314.56L605.20,303.43L602.18,312.65" fill="none" stroke="rgb(51,51,51)" stroke-width="2.00" stroke-linecap="round"/>
<path d="M610.33,313.25L604.62,300.97L599.92,312.09" fill="none" stroke="rgb(51,51,51)" stroke-width="2.00" stroke-linecap="round"/>
<path d="M487.33,223.00L651.74,223.00L651.74,241.00L487.33,241.00Z" fill="rgba(248,248,248,0.878)" stroke="none"/>
<text x="569.53" y="234.00" fill="rgb(0,0,0)" font-family="&quot;Architects Daughter&quot;, cursive" font-size="12.0" text-anchor="middle" dominant-baseline="central">Gets account info from</text>
<path d="M267.83,426.88L267.98,488.52L108.20,488.15L109.01,549.15" fill="none" stroke="rgb(51,51,51)" stroke-width="1.50" stroke-linecap="round"/>
<path d="M267.89,429.09L267.42,486.63L107.51,487.99L109.19,549.50" fill="none" stroke="rgb(51,51,51)" stroke-width="1.50" stroke-linecap="round"/>
<path d="M112.70,559.47L106.55,548.61L103.39,558.26" fill="none" stroke="rgb(51,51,51)" stroke-width="2.00" stroke-linecap="round"/>
<path d="M112.42,559.06L108.01,548.14L102.43,558.46" fill="none" stroke="rgb(51,51,51)" stroke-width="2.00" stroke-linecap="round"/>
<path d="M126.82,469.00L248.02,469.00L248.02,487.00L126.82,487.00Z" fill="rgba(248,248,248,0.878)" stroke="none"/>
<text x="187.42" y="480.00" fill="rgb(0,0,0)" font-family="&quot;Architects Daughter&quot;, cursive" font-size="12.0" text-anchor="middle" dominant-baseline="central">Sends e-mails to</text>
<path d="M39.66,678.56L52.37,690.10" fill="none" stroke="rgba(8,66,123,0.702)" stroke-width="1.00" stroke-linecap="round"/>
<path d="M40.47,666.72L62.98,690.40" fill="none" stroke="rgba(8,66,123,0.702)" stroke-width="1.00" stroke-linecap="round"/>
<path d="M39.70,655.20L74.91,690.15" fill="none" stroke="rgba(8,66,123,0.702)" stroke-width="1.00" stroke-linecap="round"/>
<path d="M39.52,644.04L85.47,689.54" fill="none" stroke="rgba(8,66,123,0.702)" stroke-width="1.00" stroke-linecap="round"/>
<path d="M39.62,633.29L97.57,690.38" fill="none" stroke="rgba(8,66,123,0.702)" stroke-width="1.00" stroke-linecap="round"/>
<path d="M39.54,621.39L108.88,689.97" fill="none" stroke="rgba(8,66,123,0.702)" stroke-width="1.00" stroke-linecap="round"/>
<path d="M39.51,610.33L119.99,689.77" fill="none" stroke="rgba(8,66,123,0.702)" stroke-width="1.00" stroke-linecap="round"/>
<path d="M40.43,598.99L131.16,689.67" fill="none" stroke="rgba(8,66,123,0.702)" stroke-width="1.00" stroke-linecap="round"/>
<path d="M39.66,587.36L141.97,689.63" fill="none" stroke="rgba(8,66,123,0.702)" stroke-width="1.00" stroke-linecap="round"/>
<path d="M40.17,575.93L153.31,690.42" fill="none" stroke="rgba(8,66,123,0.702)" stroke-width="1.00" stroke-linecap="round"/>
<path d="M39.95,565.10L165.13,690.37" fill="none" stroke="rgba(8,66,123,0.702)" stroke-width="1.00" stroke-linecap="round"/>
<path d="M42.18,555.98L176.34,689.70" fill="none" stroke="rgba(8,66,123,0.702)" stroke-width="1.00" stroke-linecap="round"/>
<path d="M47.73,550.01L187.22,690.47" fill="none" stroke="rgba(8,66,123,0.702)" stroke-width="1.00" stroke-linecap="round"/>
<path d="M57.26,547.53L198.89,689.67" fill="none" stroke="rgba(8,66,123,0.702)" stroke-width="1.00" stroke-linecap="round"/>
<path d="M68.53,547.80L210.02,690.46" fill="none" stroke="rgba(8,66,123,0.702)" stroke-width="1.00" stroke-linecap="round"/>
<path d="M79.52,547.98L221.48,690.20" fill="none" stroke="rgba(8,66,123,0.702)" stroke-width="1.00" stroke-linecap="round"/>
<path d="M91.19,547.73L232.94,690.10" fill="none" stroke="rgba(8,66,123,0.702)" stroke-width="1.00" stroke-linecap="round"/>
<path d="M102.71,548.10L244.35,690.19" fill="none" stroke="rgba(8,66,123,0.702)" stroke-width="1.00" stroke-linecap="round"/>
<path d="M113.25,547.80L255.13,689.64" fill="none" stroke="rgba(8,66,123,0.702)" stroke-width="1.00" stroke-linecap="round"/>
<path d="M124.75,547.99L266.98,689.83" fill="none" stroke="rgba(8,66,123,0.702)" stroke-width="1.00" stroke-linecap="round"/>
<path d="M136.36,548.34L278.34,690.30" fill="none" stroke="rgba(8,66,123,0.702)" stroke-width="1.00" stroke-linecap="round"/>
<path d="M147.24,547.62L289.18,690.14" fill="none" stroke="rgba(8,66,123,0.702)" stroke-width="1.00" stroke-linecap="round"/>
<path d="M159.26,547.74L300.31,689.72" fill="none" stroke="rgba(8,66,123,0.702)" stroke-width="1.00" stroke-linecap="round"/>
<path d="M170.43,548.27L311.82,689.50" fill="none" stroke="rgba(8,66,123,0.702)" stroke-width="1.00" stroke-linecap="round"/>
<path d="M181.55,548.49L323.84,689.68" fill="none" stroke="rgba(8,66,123,0.702)" stroke-width="1.00" stroke-linecap="round"/>
<path d="M192.80,548.07L335.23,690.46" fill="none" stroke="rgba(8,66,123,0.702)" stroke-width="1.00" stroke-linecap="round"/>
<path d="M204.06,548.24L346.45,689.84" fill="none" stroke="rgba(8,66,123,0.702)" stroke-width="1.00" stroke-linecap="round"/>
<path d="M215.26,547.71L357.15,690.49" fill="none" stroke="rgba(8,66,123,0.702)" stroke-width="1.00" stroke-linecap="round"/>
<path d="M226.91,548.10L368.70,689.69" fill="none" stroke="rgba(8,66,123,0.702)" stroke-width="1.00" stroke-linecap="round"/>
<path d="M237.97,548.25L380.35,690.02" fill="none" stroke="rgba(8,66,123,0.702)" stroke-width="1.00" stroke-linecap="round"/>
<path d="M249.13,548.02L391.09,689.58" fill="none" stroke="rgba(8,66,123,0.702)" stroke-width="1.00" stroke-linecap="round"/>
<path d="M260.83,548.07L402.91,689.53" fill="none" stroke="rgba(8,66,123,0.702)" stroke-width="1.00" stroke-linecap="round"/>
<path d="M271.94,548.26L413.64,689.84" fill="none" stroke="rgba(8,66,123,0.702)" stroke-width="1.00" stroke-linecap="round"/>
<path d="M283.53,547.94L425.01,689.75" fill="none" stroke="rgba(8,66,123,0.702)" stroke-width="1.00" stroke-linecap="round"/>
<path d="M294.62,548.06L437.04,690.11" fill="none" stroke="rgba(8,66,123,0.702)" stroke-width="1.00" stroke-linecap="round"/>
<path d="M306.28,548.19L447.49,690.01" fill="none" stroke="rgba(8,66,123,0.702)" stroke-width="1.00" stroke-linecap="round"/>
<path d="M317.07,548.37L459.47,689.74" fill="none" stroke="rgba(8,66,123,0.702)" stroke-width="1.00" stroke-linecap="round"/>
<path d="M328.13,548.03L470.91,689.73" fill="none" stroke="rgba(8,66,123,0.702)" stroke-width="1.00" stroke-linecap="round"/>
<path d="M339.92,547.72L482.01,690.31" fill="none" stroke="rgba(8,66,123,0.702)" stroke-width="1.00" stroke-linecap="round"/>
<path d="M350.92,548.02L488.56,685.25" fill="none" stroke="rgba(8,66,123,0.702)" stroke-width="1.00" stroke-linecap="round"/>
<path d="M362.31,548.27L493.86,679.45" fill="none" stroke="rgba(8,66,123,0.702)" stroke-width="1.00" stroke-linecap="round"/>
<path d="M373.89,547.60L493.47,668.20" fill="none" stroke="rgba(8,66,123,0.702)" stroke-width="1.00" stroke-linecap="round"/>
<path d="M385.30,547.87L493.76,656.41" fill="none" stroke="rgba(8,66,123,0.702)" stroke-width="1.00" stroke-linecap="round"/>
<path d="M396.85,547.82L493.77,644.73" fill="none" stroke="rgba(8,66,123,0.702)" stroke-width="1.00" stroke-linecap="round"/>
<path d="M407.87,548.37L493.12,633.72" fill="none" stroke="rgba(8,66,123,0.702)" stroke-width="1.00" stroke-linecap="round"/>
<path d="M419.05,548.11L493.84,623.04" fill="none" stroke="rgba(8,66,123,0.702)" stroke-width="1.00" stroke-linecap="round"/>
<path d="M430.57,547.98L493.39,610.77" fill="none" stroke="rgba(8,66,123,0.702)" stroke-width="1.00" stroke-linecap="round"/>
<path d="M441.58,548.26L493.56,600.43" fill="none" stroke="rgba(8,66,123,0.702)" stroke-width="1.00" stroke-linecap="round"/>
<path d="M452.78,547.77L493.47,588.75" fill="none" stroke="rgba(8,66,123,0.702)" stroke-width="1.00" stroke-linecap="round"/>
<path d="M464.55,548.47L493.31,577.72" fill="none" stroke="rgba(8,66,123,0.702)" stroke-width="1.00" stroke-linecap="round"/>
<path d="M475.63,548.31L493.83,565.92" fill="none" stroke="rgba(8,66,123,0.702)" stroke-width="1.00" stroke-linecap="round"/>
<path d="M49.30,546.63L483.38,547.85C489.98,549.18 492.81,551.35 494.11,558.59L494.20,680.63C494.60,685.40 489.28,690.08 484.12,688.54L49.98,690.68C44.85,690.22 39.19,684.22 40.05,678.53L40.08,557.18C40.53,552.65 44.00,548.45 49.02,547.44Z" fill="none" stroke="rgb(255,255,255)" stroke-width="2.00" stroke-linecap="round"/>
<path d="M50.76,547.91L482.33,547.22C490.07,548.19 492.70,553.96 495.06,557.15L492.55,679.54C493.11,685.53 488.18,689.97 482.46,690.98L50.63,691.48C45.73,690.72 41.02,686.10 38.51,679.97L41.40,557.47C38.67,552.17 45.04,546.87 51.28,548.17Z" fill="none" stroke="rgb(255,255,255)" stroke-width="2.00" stroke-linecap="round"/>
<text x="266.80" y="614.00" fill="rgb(255,255,255)" font-family="&quot;Architects Daughter&quot;, cursive" font-size="16.0" text-anchor="middle" dominant-baseline="central">Customer</text>
<path d="M278.80,570.00C278.80,576.63 273.43,582.00 266.80,582.00C260.17,582.00 254.80,576.63 254.80,570.00C254.80,563.37 260.17,558.00 266.80,558.00C273.43,558.00 278.80,563.37 278.80,570.00Z" fill="rgb(255,255,255)" stroke="none"/>
<path d="M242.80,599.00C242.80,591.27 253.55,585.00 266.80,585.00C280.05,585.00 290.80,591.27 290.80,599.00Z" fill="rgb(255,255,255)" stroke="none"/>
<text x="266.80" y="636.00" fill="rgb(255,255,255)" font-family="&quot;Architects Daughter&quot;, cursive" font-size="12.0" text-anchor="middle" dominant-baseline="central">A customer of the bank,</text>
<text x="266.80" y="652.00" fill="rgb(255,255,255)" font-family="&quot;Architects Daughter&quot;, cursive" font-size="12.0" text-anchor="middle" dominant-baseline="central">with personal bank accounts.</text>
<text x="266.80" y="678.00" fill="rgb(255,255,255)" font-family="&quot;Architects Daughter&quot;, cursive" font-size="10.0" text-anchor="middle" dominant-baseline="central">[Person]</text>
<path d="M295.99,169.49L308.76,182.37" fill="none" stroke="rgba(17,104,189,0.702)" stroke-width="1.00" stroke-linecap="round"/>
<path d="M296.36,158.18L320.26,181.53" fill="none" stroke="rgba(17,104,189,0.702)" stroke-width="1.00" stroke-linecap="round"/>
<path d="M296.05,146.97L331.76,181.85" fill="none" stroke="rgba(17,104,189,0.702)" stroke-width="1.00" stroke-linecap="round"/>
<path d="M296.76,136.25L342.72,181.65" fill="none" stroke="rgba(17,104,189,0.702)" stroke-width="1.00" stroke-linecap="round"/>
<path d="M296.09,124.87L353.91,182.00" fill="none" stroke="rgba(17,104,189,0.702)" stroke-width="1.00" stroke-linecap="round"/>
<path d="M296.32,112.71L365.00,181.62" fill="none" stroke="rgba(17,104,189,0.702)" stroke-width="1.00" stroke-linecap="round"/>
<path d="M296.35,102.20L376.95,181.72" fill="none" stroke="rgba(17,104,189,0.702)" stroke-width="1.00" stroke-linecap="round"/>
<path d="M296.42,91.04L387.53,182.46" fill="none" stroke="rgba(17,104,189,0.702)" stroke-width="1.00" stroke-linecap="round"/>
<path d="M296.27,79.03L399.37,182.06" fill="none" stroke="rgba(17,104,189,0.702)" stroke-width="1.00" stroke-linecap="round"/>
<path d="M296.21,68.18L411.01,181.97" fill="none" stroke="rgba(17,104,189,0.702)" stroke-width="1.00" stroke-linecap="round"/>
<path d="M296.19,56.87L422.32,182.28" fill="none" stroke="rgba(17,104,189,0.702)" stroke-width="1.00" stroke-linecap="round"/>
<path d="M298.34,47.83L433.64,181.83" fill="none" stroke="rgba(17,104,189,0.702)" stroke-width="1.00" stroke-linecap="round"/>
<path d="M304.62,42.12L444.17,182.00" fill="none" stroke="rgba(17,104,189,0.702)" stroke-width="1.00" stroke-linecap="round"/>
<path d="M313.67,40.10L455.95,181.83" fill="none" stroke="rgba(17,104,189,0.702)" stroke-width="1.00" stroke-linecap="round"/>
<path d="M324.72,40.39L466.72,182.44" fill="none" stroke="rgba(17,104,189,0.702)" stroke-width="1.00" stroke-linecap="round"/>
<path d="M336.78,40.49L478.35,182.22" fill="none" stroke="rgba(17,104,189,0.702)" stroke-width="1.00" stroke-linecap="round"/>
<path d="M347.96,40.30L489.94,181.91" fill="none" stroke="rgba(17,104,189,0.702)" stroke-width="1.00" stroke-linecap="round"/>
<path d="M358.90,39.83L501.20,182.14" fill="none" stroke="rgba(17,104,189,0.702)" stroke-width="1.00" stroke-linecap="round"/>
<path d="M370.16,40.34L512.43,182.28" fill="none" stroke="rgba(17,104,189,0.702)" stroke-width="1.00" stroke-linecap="round"/>
<path d="M381.18,40.03L523.55,182.30" fill="none" stroke="rgba(17,104,189,0.702)" stroke-width="1.00" stroke-linecap="round"/>
<path d="M392.63,40.17L534.49,181.66" fill="none" stroke="rgba(17,104,189,0.702)" stroke-width="1.00" stroke-linecap="round"/>
<path d="M404.61,39.96L546.52,181.62" fill="none" stroke="rgba(17,104,189,0.702)" stroke-width="1.00" stroke-linecap="round"/>
<path d="M415.54,39.76L557.75,182.20" fill="none" stroke="rgba(17,104,189,0.702)" stroke-width="1.00" stroke-linecap="round"/>
<path d="M427.24,40.19L567.65,180.50" fill="none" stroke="rgba(17,104,189,0.702)" stroke-width="1.00" stroke-linecap="round"/>
<path d="M437.97,39.67L573.20,174.70" fill="none" stroke="rgba(17,104,189,0.702)" stroke-width="1.00" stroke-linecap="round"/>
<path d="M450.01,39.81L575.77,166.03" fill="none" stroke="rgba(17,104,189,0.702)" stroke-width="1.00" stroke-linecap="round"/>
<path d="M460.53,40.41L575.38,154.88" fill="none" stroke="rgba(17,104,189,0.702)" stroke-width="1.00" stroke-linecap="round"/>
<path d="M472.22,40.31L575.88,143.73" fill="none" stroke="rgba(17,104,189,0.702)" stroke-width="1.00" stroke-linecap="round"/>
<path d="M483.63,39.93L575.23,131.85" fill="none" stroke="rgba(17,104,189,0.702)" stroke-width="1.00" stroke-linecap="round"/>
<path d="M494.57,39.71L575.86,120.61" fill="none" stroke="rgba(17,104,189,0.702)" stroke-width="1.00" stroke-linecap="round"/>
<path d="M506.41,40.29L575.74,109.93" fill="none" stroke="rgba(17,104,189,0.702)" stroke-width="1.00" stroke-linecap="round"/>
<path d="M517.91,39.72L575.44,98.03" fill="none" stroke="rgba(17,104,189,0.702)" stroke-width="1.00" stroke-linecap="round"/>
<path d="M529.21,40.38L575.35,86.56" fill="none" stroke="rgba(17,104,189,0.702)" stroke-width="1.00" stroke-linecap="round"/>
<path d="M539.57,40.06L575.76,75.59" fill="none" stroke="rgba(17,104,189,0.702)" stroke-width="1.00" stroke-linecap="round"/>
<path d="M551.74,39.80L575.99,64.55" fill="none" stroke="rgba(17,104,189,0.702)" stroke-width="1.00" stroke-linecap="round"/>
<path d="M562.28,39.92L576.04,52.66" fill="none" stroke="rgba(17,104,189,0.702)" stroke-width="1.00" stroke-linecap="round"/>
<path d="M305.99,39.69L564.28,40.28C572.60,41.50 576.61,43.94 576.57,49.52L575.97,171.18C576.04,176.65 571.32,180.94 564.67,181.77L307.58,180.64C299.61,181.99 295.86,176.95 296.70,171.75L297.03,49.01C297.27,45.31 301.26,41.16 306.82,38.76Z" fill="none" stroke="rgb(255,255,255)" stroke-width="2.00" stroke-linecap="round"/>
<path d="M307.74,40.38L566.76,40.01C570.18,40.36 574.93,45.40 576.17,50.42L576.34,173.07C575.17,176.83 570.66,181.49 564.21,180.67L306.06,180.68C300.20,180.72 297.00,178.00 296.49,173.09L296.08,50.98C296.64,44.08 302.39,38.62 305.48,41.04Z" fill="none" stroke="rgb(255,255,255)" stroke-width="2.00" stroke-linecap="round"/>
<text x="436.05" y="68.00" fill="rgb(255,255,255)" font-family="&quot;Architects Daughter&quot;, cursive" font-size="16.0" text-anchor="middle" dominant-baseline="central">Internet Banking System</text>
<text x="436.05" y="90.00" fill="rgb(255,255,255)" font-family="&quot;Architects Daughter&quot;, cursive" font-size="12.0" text-anchor="middle" dominant-baseline="central">Allows customers to view</text>
<text x="436.05" y="106.00" fill="rgb(255,255,255)" font-family="&quot;Architects Daughter&quot;, cursive" font-size="12.0" text-anchor="middle" dominant-baseline="central">bank account information</text>
<text x="436.05" y="122.00" fill="rgb(255,255,255)" font-family="&quot;Architects Daughter&quot;, cursive" font-size="12.0" text-anchor="middle" dominant-baseline="central">and make payments.</text>
<text x="436.05" y="170.00" fill="rgb(255,255,255)" font-family="&quot;Architects Daughter&quot;, cursive" font-size="10.0" text-anchor="middle" dominant-baseline="central">[Software System]</text>
<path d="M153.10,412.04L169.76,427.79" fill="none" stroke="rgba(67,141,213,0.702)" stroke-width="1.00" stroke-linecap="round"/>
<path d="M152.68,399.92L180.51,427.89" fill="none" stroke="rgba(67,141,213,0.702)" stroke-width="1.00" stroke-linecap="round"/>
<path d="M153.48,389.35L191.90,428.13" fill="none" stroke="rgba(67,141,213,0.702)" stroke-width="1.00" stroke-linecap="round"/>
<path d="M152.60,377.34L203.19,427.89" fill="none" stroke="rgba(67,141,213,0.702)" stroke-width="1.00" stroke-linecap="round"/>
<path d="M153.42,366.58L215.18,428.31" fill="none" stroke="rgba(67,141,213,0.702)" stroke-width="1.00" stroke-linecap="round"/>
<path d="M153.27,355.01L225.96,427.75" fill="none" stroke="rgba(67,141,213,0.702)" stroke-width="1.00" stroke-linecap="round"/>
<path d="M152.92,343.28L237.18,428.47" fill="none" stroke="rgba(67,141,213,0.702)" stroke-width="1.00" stroke-linecap="round"/>
<path d="M152.70,332.76L248.81,427.59" fill="none" stroke="rgba(67,141,213,0.702)" stroke-width="1.00" stroke-linecap="round"/>
<path d="M152.70,321.61L260.06,427.72" fill="none" stroke="rgba(67,141,213,0.702)" stroke-width="1.00" stroke-linecap="round"/>
<path d="M154.04,310.62L270.84,427.52" fill="none" stroke="rgba(67,141,213,0.702)" stroke-width="1.00" stroke-linecap="round"/>
<path d="M159.69,305.22L283.03,428.45" fill="none" stroke="rgba(67,141,213,0.702)" stroke-width="1.00" stroke-linecap="round"/>
<path d="M168.38,302.01L294.10,428.01" fill="none" stroke="rgba(67,141,213,0.702)" stroke-width="1.00" stroke-linecap="round"/>
<path d="M179.71,301.96L305.48,427.80" fill="none" stroke="rgba(67,141,213,0.702)" stroke-width="1.00" stroke-linecap="round"/>
<path d="M190.26,301.81L316.97,428.50" fill="none" stroke="rgba(67,141,213,0.702)" stroke-width="1.00" stroke-linecap="round"/>
<path d="M202.07,301.93L327.74,428.32" fill="none" stroke="rgba(67,141,213,0.702)" stroke-width="1.00" stroke-linecap="round"/>
<path d="M213.48,301.57L339.22,427.97" fill="none" stroke="rgba(67,141,213,0.702)" stroke-width="1.00" stroke-linecap="round"/>
<path d="M224.53,302.49L350.38,427.61" fill="none" stroke="rgba(67,141,213,0.702)" stroke-width="1.00" stroke-linecap="round"/>
<path d="M235.59,301.62L361.69,427.82" fill="none" stroke="rgba(67,141,213,0.702)" stroke-width="1.00" stroke-linecap="round"/>
<path d="M246.63,301.97L371.97,426.91" fill="none" stroke="rgba(67,141,213,0.702)" stroke-width="1.00" stroke-linecap="round"/>
<path d="M258.01,302.48L377.64,420.72" fill="none" stroke="rgba(67,141,213,0.702)" stroke-width="1.00" stroke-linecap="round"/>
<path d="M269.26,302.33L380.93,412.37" fill="none" stroke="rgba(67,141,213,0.702)" stroke-width="1.00" stroke-linecap="round"/>
<path d="M280.66,302.20L380.94,400.99" fill="none" stroke="rgba(67,141,213,0.702)" stroke-width="1.00" stroke-linecap="round"/>
<path d="M292.13,302.04L380.08,390.41" fill="none" stroke="rgba(67,141,213,0.702)" stroke-width="1.00" stroke-linecap="round"/>
<path d="M303.24,301.89L380.53,378.69" fill="none" stroke="rgba(67,141,213,0.702)" stroke-width="1.00" stroke-linecap="round"/>
<path d="M314.84,302.19L380.94,367.40" fill="none" stroke="rgba(67,141,213,0.702)" stroke-width="1.00" stroke-linecap="round"/>
<path d="M326.12,302.33L380.86,356.07" fill="none" stroke="rgba(67,141,213,0.702)" stroke-width="1.00" stroke-linecap="round"/>
<path d="M337.60,301.64L380.85,344.61" fill="none" stroke="rgba(67,141,213,0.702)" stroke-width="1.00" stroke-linecap="round"/>
<path d="M348.87,301.75L380.14,333.50" fill="none" stroke="rgba(67,141,213,0.702)" stroke-width="1.00" stroke-linecap="round"/>
<path d="M360.56,302.38L380.71,322.38" fill="none" stroke="rgba(67,141,213,0.702)" stroke-width="1.00" stroke-linecap="round"/>
<path d="M162.55,301.01L371.48,302.52C375.63,301.80 381.25,306.68 381.97,311.87L381.13,418.06C381.06,423.33 377.21,427.58 371.85,427.68L163.20,428.33C158.92,427.52 153.82,423.77 152.28,419.44L152.58,312.38C154.20,305.64 156.58,303.45 161.63,301.36Z" fill="none" stroke="rgb(255,255,255)" stroke-width="2.00" stroke-linecap="round"/>
<path d="M162.58,301.55L369.36,302.63C376.28,302.32 381.79,307.89 380.57,312.96L380.34,416.75C381.40,425.02 377.35,429.19 371.50,428.38L162.61,427.77C157.53,428.21 154.15,424.72 154.35,417.41L152.74,313.39C152.54,305.16 157.44,302.44 163.34,303.14Z" fill="none" stroke="rgb(255,255,255)" stroke-width="2.00" stroke-linecap="round"/>
<text x="266.80" y="330.00" fill="rgb(255,255,255)" font-family="&quot;Architects Daughter&quot;, cursive" font-size="16.0" text-anchor="middle" dominant-baseline="central">E-Mail System</text>
<text x="266.80" y="352.00" fill="rgb(255,255,255)" font-family="&quot;Architects Daughter&quot;, cursive" font-size="12.0" text-anchor="middle" dominant-baseline="central">The internal Microsoft</text>
<text x="266.80" y="368.00" fill="rgb(255,255,255)" font-family="&quot;Architects Daughter&quot;, cursive" font-size="12.0" text-anchor="middle" dominant-baseline="central">Exchange e-mail system.</text>
<text x="266.80" y="416.00" fill="rgb(255,255,255)" font-family="&quot;Architects Daughter&quot;, cursive" font-size="10.0" text-anchor="middle" dominant-baseline="central">[External Software System]</text>
<path d="M460.22,408.47L480.23,427.64" fill="none" stroke="rgba(133,187,240,0.702)" stroke-width="1.00" stroke-linecap="round"/>
<path d="M460.31,397.31L491.70,428.04" fill="none" stroke="rgba(133,187,240,0.702)" stroke-width="1.00" stroke-linecap="round"/>
<path d="M460.11,385.35L502.27,427.63" fill="none" stroke="rgba(133,187,240,0.702)" stroke-width="1.00" stroke-linecap="round"/>
<path d="M460.14,374.47L514.10,427.88" fill="none" stroke="rgba(133,187,240,0.702)" stroke-width="1.00" stroke-linecap="round"/>
<path d="M460.17,362.99L524.93,428.34" fill="none" stroke="rgba(133,187,240,0.702)" stroke-width="1.00" stroke-linecap="round"/>
<path d="M460.83,352.14L537.09,427.87" fill="none" stroke="rgba(133,187,240,0.702)" stroke-width="1.00" stroke-linecap="round"/>
<path d="M460.17,340.84L547.48,428.07" fill="none" stroke="rgba(133,187,240,0.702)" stroke-width="1.00" stroke-linecap="round"/>
<path d="M460.09,329.64L558.88,427.85" fill="none" stroke="rgba(133,187,240,0.702)" stroke-width="1.00" stroke-linecap="round"/>
<path d="M460.02,317.94L570.12,427.69" fill="none" stroke="rgba(133,187,240,0.702)" stroke-width="1.00" stroke-linecap="round"/>
<path d="M463.42,309.12L582.33,427.68" fill="none" stroke="rgba(133,187,240,0.702)" stroke-width="1.00" stroke-linecap="round"/>
<path d="M469.17,303.34L592.85,427.83" fill="none" stroke="rgba(133,187,240,0.702)" stroke-width="1.00" stroke-linecap="round"/>
<path d="M478.55,301.72L604.13,427.59" fill="none" stroke="rgba(133,187,240,0.702)" stroke-width="1.00" stroke-linecap="round"/>
<path d="M489.95,301.88L615.97,428.30" fill="none" stroke="rgba(133,187,240,0.702)" stroke-width="1.00" stroke-linecap="round"/>
<path d="M501.46,301.81L626.62,428.49" fill="none" stroke="rgba(133,187,240,0.702)" stroke-width="1.00" stroke-linecap="round"/>
<path d="M512.65,302.32L638.14,428.50" fill="none" stroke="rgba(133,187,240,0.702)" stroke-width="1.00" stroke-linecap="round"/>
<path d="M523.77,302.15L650.22,427.60" fill="none" stroke="rgba(133,187,240,0.702)" stroke-width="1.00" stroke-linecap="round"/>
<path d="M535.12,302.36L661.20,428.04" fill="none" stroke="rgba(133,187,240,0.702)" stroke-width="1.00" stroke-linecap="round"/>
<path d="M546.86,302.18L672.43,428.07" fill="none" stroke="rgba(133,187,240,0.702)" stroke-width="1.00" stroke-linecap="round"/>
<path d="M557.62,302.50L683.47,428.48" fill="none" stroke="rgba(133,187,240,0.702)" stroke-width="1.00" stroke-linecap="round"/>
<path d="M568.88,301.85L694.56,427.74" fill="none" stroke="rgba(133,187,240,0.702)" stroke-width="1.00" stroke-linecap="round"/>
<path d="M580.42,302.14L706.74,428.14" fill="none" stroke="rgba(133,187,240,0.702)" stroke-width="1.00" stroke-linecap="round"/>
<path d="M591.86,301.89L718.01,428.10" fill="none" stroke="rgba(133,187,240,0.702)" stroke-width="1.00" stroke-linecap="round"/>
<path d="M602.62,302.35L728.94,428.10" fill="none" stroke="rgba(133,187,240,0.702)" stroke-width="1.00" stroke-linecap="round"/>
<path d="M614.27,302.14L740.11,428.21" fill="none" stroke="rgba(133,187,240,0.702)" stroke-width="1.00" stroke-linecap="round"/>
<path d="M625.59,301.83L745.57,422.56" fill="none" stroke="rgba(133,187,240,0.702)" stroke-width="1.00" stroke-linecap="round"/>
<path d="M637.34,302.11L750.31,415.49" fill="none" stroke="rgba(133,187,240,0.702)" stroke-width="1.00" stroke-linecap="round"/>
<path d="M648.08,301.98L750.19,403.63" fill="none" stroke="rgba(133,187,240,0.702)" stroke-width="1.00" stroke-linecap="round"/>
<path d="M659.95,301.57L750.04,392.71" fill="none" stroke="rgba(133,187,240,0.702)" stroke-width="1.00" stroke-linecap="round"/>
<path d="M670.90,302.07L750.31,381.11" fill="none" stroke="rgba(133,187,240,0.702)" stroke-width="1.00" stroke-linecap="round"/>
<path d="M682.13,302.33L750.49,370.39" fill="none" stroke="rgba(133,187,240,0.702)" stroke-width="1.00" stroke-linecap="round"/>
<path d="M693.28,301.59L750.14,358.56" fill="none" stroke="rgba(133,187,240,0.702)" stroke-width="1.00" stroke-linecap="round"/>
<path d="M705.22,302.08L749.91,347.16" fill="none" stroke="rgba(133,187,240,0.702)" stroke-width="1.00" stroke-linecap="round"/>
<path d="M715.80,301.66L750.17,335.82" fill="none" stroke="rgba(133,187,240,0.702)" stroke-width="1.00" stroke-linecap="round"/>
<path d="M727.63,302.46L750.55,324.37" fill="none" stroke="rgba(133,187,240,0.702)" stroke-width="1.00" stroke-linecap="round"/>
<path d="M739.00,301.62L749.79,312.90" fill="none" stroke="rgba(133,187,240,0.702)" stroke-width="1.00" stroke-linecap="round"/>
<path d="M471.15,302.33L740.94,301.41C746.24,301.08 750.70,306.86 749.43,311.98L750.87,419.46C750.51,423.03 746.78,427.33 741.35,427.17L471.29,429.25C465.51,426.96 459.88,422.65 460.64,418.32L459.47,311.69C460.38,307.92 463.70,300.60 470.10,301.22Z" fill="none" stroke="rgb(0,0,0)" stroke-width="2.00" stroke-linecap="round"/>
<path d="M471.83,302.34L741.09,300.70C745.56,300.68 749.81,305.85 750.33,310.66L749.23,419.18C751.50,424.35 746.04,427.57 739.78,426.62L470.58,428.35C466.30,427.80 461.36,423.45 460.96,417.66L461.46,312.41C459.38,307.35 465.55,301.29 469.67,301.04Z" fill="none" stroke="rgb(0,0,0)" stroke-width="2.00" stroke-linecap="round"/>
<text x="605.30" y="330.00" fill="rgb(0,0,0)" font-family="&quot;Architects Daughter&quot;, cursive" font-size="16.0" text-anchor="middle" dominant-baseline="central">Mainframe Banking System</text>
<text x="605.30" y="352.00" fill="rgb(0,0,0)" font-family="&quot;Architects Daughter&quot;, cursive" font-size="12.0" text-anchor="middle" dominant-baseline="central">Stores all of the core</text>
<text x="605.30" y="368.00" fill="rgb(0,0,0)" font-family="&quot;Architects Daughter&quot;, cursive" font-size="12.0" text-anchor="middle" dominant-baseline="central">banking information.</text>
<text x="605.30" y="416.00" fill="rgb(0,0,0)" font-family="&quot;Architects Daughter&quot;, cursive" font-size="10.0" text-anchor="middle" dominant-baseline="central">[External Software System]</text>
</svg>