<svg xmlns="http://www.w3.org/2000/svg" width="986" height="774" viewBox="0 0 986 774">
<rect width="986" height="774" fill="#fff"/>
<path d="M423.49,154.00L423.49,234.00L165.20,234.00L165.20,314.00" fill="none" stroke="rgb(51,51,51)" stroke-width="1.50" stroke-linecap="round" stroke-dasharray="6 6"/>
<path d="M169.23,325.99L163.73,313.73L159.89,325.99" fill="none" stroke="rgb(51,51,51)" stroke-width="2.00" stroke-linecap="round"/>
<path d="M169.46,324.11L163.80,313.34L161.09,326.31" fill="none" stroke="rgb(51,51,51)" stroke-width="2.00" stroke-linecap="round"/>
<path d="M266.15,215.00L322.55,215.00L322.55,233.00L266.15,233.00Z" fill="rgba(248,248,248,0.878)" stroke="none"/>
<text x="294.35" y="226.00" fill="rgb(0,0,0)" font-family="&quot;Architects Daughter&quot;, cursive" font-size="12.0" text-anchor="middle" dominant-baseline="central">creates</text>
<path d="M507.44,154.52L508.31,335.39" fill="none" stroke="rgb(51,51,51)" stroke-width="1.50" stroke-linecap="round"/>
<path d="M509.07,154.46L508.00,332.69" fill="none" stroke="rgb(51,51,51)" stroke-width="1.50" stroke-linecap="round"/>
<path d="M508.40,154.00L512.00,146.00L508.40,138.00L504.80,146.00Z" fill="rgb(255,255,255)" stroke="none"/>
<path d="M508.20,153.13L510.92,146.41L507.68,137.74L503.80,146.78Z" fill="none" stroke="rgb(51,51,51)" stroke-width="1.50" stroke-linecap="round"/>
<path d="M508.48,154.01L513.08,145.56L508.90,139.40L505.63,144.79Z" fill="none" stroke="rgb(51,51,51)" stroke-width="1.50" stroke-linecap="round"/>
<path d="M594.61,155.47L594.06,243.77L837.25,245.35L835.43,334.73" fill="none" stroke="rgb(51,51,51)" stroke-width="1.50" stroke-linecap="round"/>
<path d="M592.93,153.48L594.76,243.54L835.05,244.73L836.48,332.62" fill="none" stroke="rgb(51,51,51)" stroke-width="1.50" stroke-linecap="round"/>
<path d="M593.31,154.00L596.91,146.00L593.31,138.00L589.71,146.00Z" fill="rgb(255,255,255)" stroke="none"/>
<path d="M594.52,153.89L597.40,144.66L594.11,136.78L590.28,145.29Z" fill="none" stroke="rgb(51,51,51)" stroke-width="1.50" stroke-linecap="round"/>
<path d="M593.67,154.95L596.29,145.17L593.58,139.10L588.28,144.68Z" fill="none" stroke="rgb(51,51,51)" stroke-width="1.50" stroke-linecap="round"/>
<path d="M166.69,446.32L166.43,606.85" fill="none" stroke="rgb(51,51,51)" stroke-width="1.50" stroke-linecap="round"/>
<path d="M164.73,447.29L165.10,607.43" fill="none" stroke="rgb(51,51,51)" stroke-width="1.50" stroke-linecap="round"/>
<path d="M165.20,446.00L168.80,438.00L165.20,430.00L161.60,438.00Z" fill="rgb(51,51,51)" stroke="none"/>
<path d="M166.19,445.38L169.71,437.98L164.52,428.97L160.33,436.81Z" fill="none" stroke="rgb(51,51,51)" stroke-width="1.00" stroke-linecap="round"/>
<path d="M166.23,444.88L169.98,438.52L165.36,430.15L162.57,439.15Z" fill="none" stroke="rgb(51,51,51)" stroke-width="1.00" stroke-linecap="round"/>
<path d="M40.36,443.13L43.44,445.54" fill="none" stroke="rgba(187,222,251,0.702)" stroke-width="1.00" stroke-linecap="round"/>
<path d="M39.82,431.45L54.93,446.50" fill="none" stroke="rgba(187,222,251,0.702)" stroke-width="1.00" stroke-linecap="round"/>
<path d="M40.18,420.21L65.36,446.20" fill="none" stroke="rgba(187,222,251,0.702)" stroke-width="1.00" stroke-linecap="round"/>
<path d="M39.82,408.49L77.26,445.93" fill="none" stroke="rgba(187,222,251,0.702)" stroke-width="1.00" stroke-linecap="round"/>
<path d="M39.99,397.56L87.99,445.73" fill="none" stroke="rgba(187,222,251,0.702)" stroke-width="1.00" stroke-linecap="round"/>
<path d="M39.66,386.67L100.26,446.10" fill="none" stroke="rgba(187,222,251,0.702)" stroke-width="1.00" stroke-linecap="round"/>
<path d="M40.47,374.82L110.87,446.40" fill="none" stroke="rgba(187,222,251,0.702)" stroke-width="1.00" stroke-linecap="round"/>
<path d="M39.70,363.31L122.81,446.15" fill="none" stroke="rgba(187,222,251,0.702)" stroke-width="1.00" stroke-linecap="round"/>
<path d="M39.52,352.15L133.37,445.54" fill="none" stroke="rgba(187,222,251,0.702)" stroke-width="1.00" stroke-linecap="round"/>
<path d="M39.62,341.40L145.46,446.38" fill="none" stroke="rgba(187,222,251,0.702)" stroke-width="1.00" stroke-linecap="round"/>
<path d="M39.54,329.49L156.77,445.97" fill="none" stroke="rgba(187,222,251,0.702)" stroke-width="1.00" stroke-linecap="round"/>
<path d="M39.51,318.43L167.88,445.77" fill="none" stroke="rgba(187,222,251,0.702)" stroke-width="1.00" stroke-linecap="round"/>
<path d="M47.43,314.10L179.06,445.67" fill="none" stroke="rgba(187,222,251,0.702)" stroke-width="1.00" stroke-linecap="round"/>
<path d="M57.97,313.78L189.86,445.63" fill="none" stroke="rgba(187,222,251,0.702)" stroke-width="1.00" stroke-linecap="round"/>
<path d="M69.80,313.66L201.21,446.42" fill="none" stroke="rgba(187,222,251,0.702)" stroke-width="1.00" stroke-linecap="round"/>
<path d="M80.89,314.15L213.02,446.37" fill="none" stroke="rgba(187,222,251,0.702)" stroke-width="1.00" stroke-linecap="round"/>
<path d="M92.25,314.16L224.23,445.70" fill="none" stroke="rgba(187,222,251,0.702)" stroke-width="1.00" stroke-linecap="round"/>
<path d="M103.46,313.85L235.11,446.47" fill="none" stroke="rgba(187,222,251,0.702)" stroke-width="1.00" stroke-linecap="round"/>
<path d="M115.15,313.53L246.78,445.67" fill="none" stroke="rgba(187,222,251,0.702)" stroke-width="1.00" stroke-linecap="round"/>
<path d="M126.43,313.80L257.92,446.46" fill="none" stroke="rgba(187,222,251,0.702)" stroke-width="1.00" stroke-linecap="round"/>
<path d="M137.41,313.98L269.37,446.20" fill="none" stroke="rgba(187,222,251,0.702)" stroke-width="1.00" stroke-linecap="round"/>
<path d="M149.09,313.73L280.83,446.10" fill="none" stroke="rgba(187,222,251,0.702)" stroke-width="1.00" stroke-linecap="round"/>
<path d="M160.60,314.10L290.51,444.46" fill="none" stroke="rgba(187,222,251,0.702)" stroke-width="1.00" stroke-linecap="round"/>
<path d="M171.15,313.80L289.98,432.60" fill="none" stroke="rgba(187,222,251,0.702)" stroke-width="1.00" stroke-linecap="round"/>
<path d="M182.64,313.99L290.51,421.47" fill="none" stroke="rgba(187,222,251,0.702)" stroke-width="1.00" stroke-linecap="round"/>
<path d="M194.26,314.34L290.56,410.63" fill="none" stroke="rgba(187,222,251,0.702)" stroke-width="1.00" stroke-linecap="round"/>
<path d="M205.13,313.62L290.09,399.15" fill="none" stroke="rgba(187,222,251,0.702)" stroke-width="1.00" stroke-linecap="round"/>
<path d="M217.16,313.74L289.90,387.42" fill="none" stroke="rgba(187,222,251,0.702)" stroke-width="1.00" stroke-linecap="round"/>
<path d="M228.33,314.27L290.10,375.89" fill="none" stroke="rgba(187,222,251,0.702)" stroke-width="1.00" stroke-linecap="round"/>
<path d="M239.44,314.49L290.81,364.75" fill="none" stroke="rgba(187,222,251,0.702)" stroke-width="1.00" stroke-linecap="round"/>
<path d="M250.70,314.07L290.88,354.21" fill="none" stroke="rgba(187,222,251,0.702)" stroke-width="1.00" stroke-linecap="round"/>
<path d="M261.95,314.24L290.79,342.28" fill="none" stroke="rgba(187,222,251,0.702)" stroke-width="1.00" stroke-linecap="round"/>
<path d="M273.15,313.71L290.17,331.61" fill="none" stroke="rgba(187,222,251,0.702)" stroke-width="1.00" stroke-linecap="round"/>
<path d="M284.80,314.10L290.41,319.51" fill="none" stroke="rgba(187,222,251,0.702)" stroke-width="1.00" stroke-linecap="round"/>
<path d="M39.90,314.75L291.45,314.06L289.84,446.06L39.32,444.73Z" fill="none" stroke="rgb(0,0,0)" stroke-width="2.00" stroke-linecap="round"/>
<path d="M40.59,314.22L291.23,312.59L290.38,446.78L39.09,445.51Z" fill="none" stroke="rgb(0,0,0)" stroke-width="2.00" stroke-linecap="round"/>
<text x="165.20" y="329.00" fill="rgb(0,0,0)" font-family="&quot;Architects Daughter&quot;, cursive" font-size="16.0" text-anchor="middle" dominant-baseline="central">Order</text>
<path d="M40.82,343.83L289.66,343.24" fill="none" stroke="rgb(0,0,0)" stroke-width="1.00" stroke-linecap="round"/>
<path d="M40.14,344.18L291.81,344.33" fill="none" stroke="rgb(0,0,0)" stroke-width="1.00" stroke-linecap="round"/>
<text x="80.40" y="356.00" fill="rgb(0,0,0)" font-family="&quot;Architects Daughter&quot;, cursive" font-size="12.0" text-anchor="middle" dominant-baseline="central">-id: UUID</text>
<text x="116.40" y="374.00" fill="rgb(0,0,0)" font-family="&quot;Architects Daughter&quot;, cursive" font-size="12.0" text-anchor="middle" dominant-baseline="central">-items: OrderItem[]</text>
<text x="94.80" y="392.00" fill="rgb(0,0,0)" font-family="&quot;Architects Daughter&quot;, cursive" font-size="12.0" text-anchor="middle" dominant-baseline="central">-total: Money</text>
<path d="M41.19,404.56L289.21,404.02" fill="none" stroke="rgb(0,0,0)" stroke-width="1.00" stroke-linecap="round"/>
<path d="M39.61,405.10L291.21,403.23" fill="none" stroke="rgb(0,0,0)" stroke-width="1.00" stroke-linecap="round"/>
<text x="148.80" y="416.00" fill="rgb(0,0,0)" font-family="&quot;Architects Daughter&quot;, cursive" font-size="12.0" text-anchor="middle" dominant-baseline="central">+addItem(product, qty): void</text>
<text x="102.00" y="434.00" fill="rgb(0,0,0)" font-family="&quot;Architects Daughter&quot;, cursive" font-size="12.0" text-anchor="middle" dominant-baseline="central">+submit(): void</text>
<path d="M153.07,606.03L245.60,697.48" fill="none" stroke="rgba(200,230,201,0.702)" stroke-width="1.00" stroke-linecap="round"/>
<path d="M164.86,605.72L245.39,686.75" fill="none" stroke="rgba(200,230,201,0.702)" stroke-width="1.00" stroke-linecap="round"/>
<path d="M175.86,606.02L245.39,675.14" fill="none" stroke="rgba(200,230,201,0.702)" stroke-width="1.00" stroke-linecap="round"/>
<path d="M187.25,606.27L245.46,664.12" fill="none" stroke="rgba(200,230,201,0.702)" stroke-width="1.00" stroke-linecap="round"/>
<path d="M198.83,605.60L245.07,652.86" fill="none" stroke="rgba(200,230,201,0.702)" stroke-width="1.00" stroke-linecap="round"/>
<path d="M210.24,605.87L245.36,641.07" fill="none" stroke="rgba(200,230,201,0.702)" stroke-width="1.00" stroke-linecap="round"/>
<path d="M221.79,605.82L245.37,629.39" fill="none" stroke="rgba(200,230,201,0.702)" stroke-width="1.00" stroke-linecap="round"/>
<path d="M232.81,606.37L244.72,618.38" fill="none" stroke="rgba(200,230,201,0.702)" stroke-width="1.00" stroke-linecap="round"/>
<path d="M243.98,606.11L245.44,607.71" fill="none" stroke="rgba(200,230,201,0.702)" stroke-width="1.00" stroke-linecap="round"/>
<path d="M85.89,605.95L244.58,604.54L245.00,734.79L85.07,735.45Z" fill="none" stroke="rgb(0,0,0)" stroke-width="2.00" stroke-linecap="round"/>
<path d="M84.64,605.32L244.82,606.35L246.00,735.42L84.32,735.21Z" fill="none" stroke="rgb(0,0,0)" stroke-width="2.00" stroke-linecap="round"/>
<text x="165.20" y="636.00" fill="rgb(0,0,0)" font-family="&quot;Architects Daughter&quot;, cursive" font-size="16.0" text-anchor="middle" dominant-baseline="central">OrderStatus</text>
<text x="165.20" y="620.00" fill="rgb(0,0,0)" font-family="&quot;Architects Daughter&quot;, cursive" font-size="12.0" text-anchor="middle" dominant-baseline="central">«enum»</text>
<path d="M85.32,650.92L245.90,649.72" fill="none" stroke="rgb(0,0,0)" stroke-width="1.00" stroke-linecap="round"/>
<path d="M84.50,648.63L244.98,649.85" fill="none" stroke="rgb(0,0,0)" stroke-width="1.00" stroke-linecap="round"/>
<text x="114.80" y="662.00" fill="rgb(0,0,0)" font-family="&quot;Architects Daughter&quot;, cursive" font-size="12.0" text-anchor="middle" dominant-baseline="central">+DRAFT</text>
<text x="129.20" y="680.00" fill="rgb(0,0,0)" font-family="&quot;Architects Daughter&quot;, cursive" font-size="12.0" text-anchor="middle" dominant-baseline="central">+SUBMITTED</text>
<text x="111.20" y="698.00" fill="rgb(0,0,0)" font-family="&quot;Architects Daughter&quot;, cursive" font-size="12.0" text-anchor="middle" dominant-baseline="central">+PAID</text>
<text x="122.00" y="716.00" fill="rgb(0,0,0)" font-family="&quot;Architects Daughter&quot;, cursive" font-size="12.0" text-anchor="middle" dominant-baseline="central">+SHIPPED</text>
<path d="M86.06,729.18L244.41,726.87" fill="none" stroke="rgb(0,0,0)" stroke-width="1.00" stroke-linecap="round"/>
<path d="M85.71,728.59L245.80,728.63" fill="none" stroke="rgb(0,0,0)" stroke-width="1.00" stroke-linecap="round"/>
<path d="M387.43,145.51L395.60,154.03" fill="none" stroke="rgba(255,224,178,0.702)" stroke-width="1.00" stroke-linecap="round"/>
<path d="M387.27,133.75L406.85,154.23" fill="none" stroke="rgba(255,224,178,0.702)" stroke-width="1.00" stroke-linecap="round"/>
<path d="M387.23,123.00L417.90,153.57" fill="none" stroke="rgba(255,224,178,0.702)" stroke-width="1.00" stroke-linecap="round"/>
<path d="M387.12,111.12L429.51,153.73" fill="none" stroke="rgba(255,224,178,0.702)" stroke-width="1.00" stroke-linecap="round"/>
<path d="M387.28,100.35L440.64,154.15" fill="none" stroke="rgba(255,224,178,0.702)" stroke-width="1.00" stroke-linecap="round"/>
<path d="M386.77,88.80L452.37,153.97" fill="none" stroke="rgba(255,224,178,0.702)" stroke-width="1.00" stroke-linecap="round"/>
<path d="M386.68,77.41L463.74,154.06" fill="none" stroke="rgba(255,224,178,0.702)" stroke-width="1.00" stroke-linecap="round"/>
<path d="M386.80,66.85L475.23,153.72" fill="none" stroke="rgba(255,224,178,0.702)" stroke-width="1.00" stroke-linecap="round"/>
<path d="M386.75,54.89L485.89,154.00" fill="none" stroke="rgba(255,224,178,0.702)" stroke-width="1.00" stroke-linecap="round"/>
<path d="M386.79,43.72L496.99,154.33" fill="none" stroke="rgba(255,224,178,0.702)" stroke-width="1.00" stroke-linecap="round"/>
<path d="M394.89,40.49L509.10,154.24" fill="none" stroke="rgba(255,224,178,0.702)" stroke-width="1.00" stroke-linecap="round"/>
<path d="M406.34,40.19L519.50,153.99" fill="none" stroke="rgba(255,224,178,0.702)" stroke-width="1.00" stroke-linecap="round"/>
<path d="M417.78,39.82L530.87,153.90" fill="none" stroke="rgba(255,224,178,0.702)" stroke-width="1.00" stroke-linecap="round"/>
<path d="M428.81,39.62L543.05,154.06" fill="none" stroke="rgba(255,224,178,0.702)" stroke-width="1.00" stroke-linecap="round"/>
<path d="M439.48,39.75L553.99,154.37" fill="none" stroke="rgba(255,224,178,0.702)" stroke-width="1.00" stroke-linecap="round"/>
<path d="M451.16,39.76L565.49,153.53" fill="none" stroke="rgba(255,224,178,0.702)" stroke-width="1.00" stroke-linecap="round"/>
<path d="M462.16,39.86L576.98,153.85" fill="none" stroke="rgba(255,224,178,0.702)" stroke-width="1.00" stroke-linecap="round"/>
<path d="M474.19,40.45L587.95,153.65" fill="none" stroke="rgba(255,224,178,0.702)" stroke-width="1.00" stroke-linecap="round"/>
<path d="M484.84,40.39L599.13,154.00" fill="none" stroke="rgba(255,224,178,0.702)" stroke-width="1.00" stroke-linecap="round"/>
<path d="M496.37,39.54L610.23,153.62" fill="none" stroke="rgba(255,224,178,0.702)" stroke-width="1.00" stroke-linecap="round"/>
<path d="M507.72,40.34L622.17,153.72" fill="none" stroke="rgba(255,224,178,0.702)" stroke-width="1.00" stroke-linecap="round"/>
<path d="M519.11,40.50L629.32,151.02" fill="none" stroke="rgba(255,224,178,0.702)" stroke-width="1.00" stroke-linecap="round"/>
<path d="M530.26,39.81L629.84,139.31" fill="none" stroke="rgba(255,224,178,0.702)" stroke-width="1.00" stroke-linecap="round"/>
<path d="M541.52,40.27L630.18,127.91" fill="none" stroke="rgba(255,224,178,0.702)" stroke-width="1.00" stroke-linecap="round"/>
<path d="M552.81,40.27L630.16,116.91" fill="none" stroke="rgba(255,224,178,0.702)" stroke-width="1.00" stroke-linecap="round"/>
<path d="M563.92,40.19L630.17,105.14" fill="none" stroke="rgba(255,224,178,0.702)" stroke-width="1.00" stroke-linecap="round"/>
<path d="M575.86,40.14L629.40,93.99" fill="none" stroke="rgba(255,224,178,0.702)" stroke-width="1.00" stroke-linecap="round"/>
<path d="M586.89,40.10L629.86,82.52" fill="none" stroke="rgba(255,224,178,0.702)" stroke-width="1.00" stroke-linecap="round"/>
<path d="M597.95,40.39L629.32,71.81" fill="none" stroke="rgba(255,224,178,0.702)" stroke-width="1.00" stroke-linecap="round"/>
<path d="M610.00,40.49L629.63,60.27" fill="none" stroke="rgba(255,224,178,0.702)" stroke-width="1.00" stroke-linecap="round"/>
<path d="M621.18,40.30L629.91,48.65" fill="none" stroke="rgba(255,224,178,0.702)" stroke-width="1.00" stroke-linecap="round"/>
<path d="M386.66,39.50L630.17,40.43L629.10,155.03L387.32,154.83Z" fill="none" stroke="rgb(0,0,0)" stroke-width="2.00" stroke-linecap="round"/>
<path d="M385.61,40.08L629.34,40.90L628.62,154.51L385.61,152.98Z" fill="none" stroke="rgb(0,0,0)" stroke-width="2.00" stroke-linecap="round"/>
<text x="508.40" y="55.00" fill="rgb(0,0,0)" font-family="&quot;Architects Daughter&quot;, cursive" font-size="16.0" text-anchor="middle" dominant-baseline="central">OrderService</text>
<path d="M388.02,69.87L630.37,68.87" fill="none" stroke="rgb(0,0,0)" stroke-width="1.00" stroke-linecap="round"/>
<path d="M386.88,69.28L630.09,70.61" fill="none" stroke="rgb(0,0,0)" stroke-width="1.00" stroke-linecap="round"/>
<text x="474.30" y="82.00" fill="rgb(0,0,0)" font-family="&quot;Architects Daughter&quot;, cursive" font-size="12.0" text-anchor="middle" dominant-baseline="central">-repo: OrderRepository</text>
<text x="481.50" y="100.00" fill="rgb(0,0,0)" font-family="&quot;Architects Daughter&quot;, cursive" font-size="12.0" text-anchor="middle" dominant-baseline="central">-payment: PaymentGateway</text>
<path d="M388.03,112.58L630.77,112.41" fill="none" stroke="rgb(0,0,0)" stroke-width="1.00" stroke-linecap="round"/>
<path d="M386.29,111.01L630.45,111.99" fill="none" stroke="rgb(0,0,0)" stroke-width="1.00" stroke-linecap="round"/>
<text x="485.10" y="124.00" fill="rgb(0,0,0)" font-family="&quot;Architects Daughter&quot;, cursive" font-size="12.0" text-anchor="middle" dominant-baseline="central">+createOrder(cart): Order</text>
<text x="492.30" y="142.00" fill="rgb(0,0,0)" font-family="&quot;Architects Daughter&quot;, cursive" font-size="12.0" text-anchor="middle" dominant-baseline="central">+checkout(orderId): Payment</text>
<path d="M410.86,421.52L414.80,425.93" fill="none" stroke="rgba(225,190,231,0.702)" stroke-width="1.00" stroke-linecap="round"/>
<path d="M410.06,410.81L425.73,426.10" fill="none" stroke="rgba(225,190,231,0.702)" stroke-width="1.00" stroke-linecap="round"/>
<path d="M410.43,399.39L437.55,426.26" fill="none" stroke="rgba(225,190,231,0.702)" stroke-width="1.00" stroke-linecap="round"/>
<path d="M410.54,387.70L448.20,425.69" fill="none" stroke="rgba(225,190,231,0.702)" stroke-width="1.00" stroke-linecap="round"/>
<path d="M410.16,376.17L460.15,425.77" fill="none" stroke="rgba(225,190,231,0.702)" stroke-width="1.00" stroke-linecap="round"/>
<path d="M410.69,365.44L471.35,426.40" fill="none" stroke="rgba(225,190,231,0.702)" stroke-width="1.00" stroke-linecap="round"/>
<path d="M410.87,353.55L482.36,425.82" fill="none" stroke="rgba(225,190,231,0.702)" stroke-width="1.00" stroke-linecap="round"/>
<path d="M410.85,342.90L493.58,425.67" fill="none" stroke="rgba(225,190,231,0.702)" stroke-width="1.00" stroke-linecap="round"/>
<path d="M412.70,334.06L505.31,426.01" fill="none" stroke="rgba(225,190,231,0.702)" stroke-width="1.00" stroke-linecap="round"/>
<path d="M424.87,333.80L516.85,426.28" fill="none" stroke="rgba(225,190,231,0.702)" stroke-width="1.00" stroke-linecap="round"/>
<path d="M435.41,333.92L528.21,425.70" fill="none" stroke="rgba(225,190,231,0.702)" stroke-width="1.00" stroke-linecap="round"/>
<path d="M446.98,333.90L538.68,426.09" fill="none" stroke="rgba(225,190,231,0.702)" stroke-width="1.00" stroke-linecap="round"/>
<path d="M458.93,334.50L550.77,425.82" fill="none" stroke="rgba(225,190,231,0.702)" stroke-width="1.00" stroke-linecap="round"/>
<path d="M470.07,333.84L561.87,425.73" fill="none" stroke="rgba(225,190,231,0.702)" stroke-width="1.00" stroke-linecap="round"/>
<path d="M481.21,333.71L573.13,425.65" fill="none" stroke="rgba(225,190,231,0.702)" stroke-width="1.00" stroke-linecap="round"/>
<path d="M492.07,333.92L584.77,425.55" fill="none" stroke="rgba(225,190,231,0.702)" stroke-width="1.00" stroke-linecap="round"/>
<path d="M503.27,334.00L595.51,425.81" fill="none" stroke="rgba(225,190,231,0.702)" stroke-width="1.00" stroke-linecap="round"/>
<path d="M515.10,333.92L606.59,425.05" fill="none" stroke="rgba(225,190,231,0.702)" stroke-width="1.00" stroke-linecap="round"/>
<path d="M526.61,334.28L606.51,414.45" fill="none" stroke="rgba(225,190,231,0.702)" stroke-width="1.00" stroke-linecap="round"/>
<path d="M537.77,333.59L606.83,402.88" fill="none" stroke="rgba(225,190,231,0.702)" stroke-width="1.00" stroke-linecap="round"/>
<path d="M549.33,334.00L606.07,391.56" fill="none" stroke="rgba(225,190,231,0.702)" stroke-width="1.00" stroke-linecap="round"/>
<path d="M560.04,334.31L606.57,380.27" fill="none" stroke="rgba(225,190,231,0.702)" stroke-width="1.00" stroke-linecap="round"/>
<path d="M571.82,334.36L606.24,368.58" fill="none" stroke="rgba(225,190,231,0.702)" stroke-width="1.00" stroke-linecap="round"/>
<path d="M582.73,333.83L605.92,357.06" fill="none" stroke="rgba(225,190,231,0.702)" stroke-width="1.00" stroke-linecap="round"/>
<path d="M594.08,333.56L606.16,345.76" fill="none" stroke="rgba(225,190,231,0.702)" stroke-width="1.00" stroke-linecap="round"/>
<path d="M605.71,334.16L606.41,335.23" fill="none" stroke="rgba(225,190,231,0.702)" stroke-width="1.00" stroke-linecap="round"/>
<path d="M410.03,334.98L606.59,333.60L607.86,424.62L409.43,427.04Z" fill="none" stroke="rgb(0,0,0)" stroke-width="2.00" stroke-linecap="round"/>
<path d="M410.41,335.28L607.24,333.37L605.13,424.85L409.53,425.68Z" fill="none" stroke="rgb(0,0,0)" stroke-width="2.00" stroke-linecap="round"/>
<text x="508.40" y="364.00" fill="rgb(0,0,0)" font-family="&quot;Architects Daughter&quot;, cursive" font-size="16.0" text-anchor="middle" dominant-baseline="central">OrderRepository</text>
<text x="508.40" y="348.00" fill="rgb(0,0,0)" font-family="&quot;Architects Daughter&quot;, cursive" font-size="12.0" text-anchor="middle" dominant-baseline="central">«interface»</text>
<path d="M411.53,379.09L605.76,378.38" fill="none" stroke="rgb(0,0,0)" stroke-width="1.00" stroke-linecap="round"/>
<path d="M408.91,376.99L605.71,377.66" fill="none" stroke="rgb(0,0,0)" stroke-width="1.00" stroke-linecap="round"/>
<path d="M411.36,384.64L607.73,384.92" fill="none" stroke="rgb(0,0,0)" stroke-width="1.00" stroke-linecap="round"/>
<path d="M410.91,383.89L606.13,383.24" fill="none" stroke="rgb(0,0,0)" stroke-width="1.00" stroke-linecap="round"/>
<text x="490.40" y="396.00" fill="rgb(0,0,0)" font-family="&quot;Architects Daughter&quot;, cursive" font-size="12.0" text-anchor="middle" dominant-baseline="central">+findById(id): Order</text>
<text x="483.20" y="414.00" fill="rgb(0,0,0)" font-family="&quot;Architects Daughter&quot;, cursive" font-size="12.0" text-anchor="middle" dominant-baseline="central">+save(order): void</text>
<path d="M726.22,418.21L733.55,426.47" fill="none" stroke="rgba(255,249,196,0.702)" stroke-width="1.00" stroke-linecap="round"/>
<path d="M726.00,407.69L745.17,425.59" fill="none" stroke="rgba(255,249,196,0.702)" stroke-width="1.00" stroke-linecap="round"/>
<path d="M726.00,396.54L756.43,425.72" fill="none" stroke="rgba(255,249,196,0.702)" stroke-width="1.00" stroke-linecap="round"/>
<path d="M726.24,384.45L767.21,425.52" fill="none" stroke="rgba(255,249,196,0.702)" stroke-width="1.00" stroke-linecap="round"/>
<path d="M726.23,373.39L779.40,426.45" fill="none" stroke="rgba(255,249,196,0.702)" stroke-width="1.00" stroke-linecap="round"/>
<path d="M726.85,362.10L790.47,426.01" fill="none" stroke="rgba(255,249,196,0.702)" stroke-width="1.00" stroke-linecap="round"/>
<path d="M726.87,350.74L801.85,425.80" fill="none" stroke="rgba(255,249,196,0.702)" stroke-width="1.00" stroke-linecap="round"/>
<path d="M726.10,339.28L813.34,426.50" fill="none" stroke="rgba(255,249,196,0.702)" stroke-width="1.00" stroke-linecap="round"/>
<path d="M732.44,333.93L824.11,426.32" fill="none" stroke="rgba(255,249,196,0.702)" stroke-width="1.00" stroke-linecap="round"/>
<path d="M743.85,333.57L835.58,425.97" fill="none" stroke="rgba(255,249,196,0.702)" stroke-width="1.00" stroke-linecap="round"/>
<path d="M754.90,334.49L846.75,425.61" fill="none" stroke="rgba(255,249,196,0.702)" stroke-width="1.00" stroke-linecap="round"/>
<path d="M765.96,333.62L858.06,425.82" fill="none" stroke="rgba(255,249,196,0.702)" stroke-width="1.00" stroke-linecap="round"/>
<path d="M777.00,333.97L869.65,426.23" fill="none" stroke="rgba(255,249,196,0.702)" stroke-width="1.00" stroke-linecap="round"/>
<path d="M788.38,334.48L880.98,425.69" fill="none" stroke="rgba(255,249,196,0.702)" stroke-width="1.00" stroke-linecap="round"/>
<path d="M799.63,334.33L892.55,425.63" fill="none" stroke="rgba(255,249,196,0.702)" stroke-width="1.00" stroke-linecap="round"/>
<path d="M811.03,334.20L903.87,425.56" fill="none" stroke="rgba(255,249,196,0.702)" stroke-width="1.00" stroke-linecap="round"/>
<path d="M822.50,334.04L914.33,426.29" fill="none" stroke="rgba(255,249,196,0.702)" stroke-width="1.00" stroke-linecap="round"/>
<path d="M833.61,333.89L926.10,425.89" fill="none" stroke="rgba(255,249,196,0.702)" stroke-width="1.00" stroke-linecap="round"/>
<path d="M845.21,334.19L937.82,425.91" fill="none" stroke="rgba(255,249,196,0.702)" stroke-width="1.00" stroke-linecap="round"/>
<path d="M856.49,334.33L945.96,422.80" fill="none" stroke="rgba(255,249,196,0.702)" stroke-width="1.00" stroke-linecap="round"/>
<path d="M867.97,333.64L945.95,411.34" fill="none" stroke="rgba(255,249,196,0.702)" stroke-width="1.00" stroke-linecap="round"/>
<path d="M879.24,333.75L945.24,400.23" fill="none" stroke="rgba(255,249,196,0.702)" stroke-width="1.00" stroke-linecap="round"/>
<path d="M890.93,334.38L945.81,389.11" fill="none" stroke="rgba(255,249,196,0.702)" stroke-width="1.00" stroke-linecap="round"/>
<path d="M901.77,333.67L945.93,377.83" fill="none" stroke="rgba(255,249,196,0.702)" stroke-width="1.00" stroke-linecap="round"/>
<path d="M913.13,333.93L945.85,366.41" fill="none" stroke="rgba(255,249,196,0.702)" stroke-width="1.00" stroke-linecap="round"/>
<path d="M925.07,333.96L945.81,355.04" fill="none" stroke="rgba(255,249,196,0.702)" stroke-width="1.00" stroke-linecap="round"/>
<path d="M936.08,333.94L946.00,343.57" fill="none" stroke="rgba(255,249,196,0.702)" stroke-width="1.00" stroke-linecap="round"/>
<path d="M727.75,333.68L945.70,334.33L946.95,425.52L727.12,426.25Z" fill="none" stroke="rgb(0,0,0)" stroke-width="2.00" stroke-linecap="round"/>
<path d="M725.58,335.44L945.08,334.38L946.70,425.16L725.40,427.45Z" fill="none" stroke="rgb(0,0,0)" stroke-width="2.00" stroke-linecap="round"/>
<text x="836.00" y="364.00" fill="rgb(0,0,0)" font-family="&quot;Architects Daughter&quot;, cursive" font-size="16.0" text-anchor="middle" dominant-baseline="central">PaymentGateway</text>
<text x="836.00" y="348.00" fill="rgb(0,0,0)" font-family="&quot;Architects Daughter&quot;, cursive" font-size="12.0" text-anchor="middle" dominant-baseline="central">«interface»</text>
<path d="M724.93,377.36L945.08,377.55" fill="none" stroke="rgb(0,0,0)" stroke-width="1.00" stroke-linecap="round"/>
<path d="M725.26,378.63L945.86,378.32" fill="none" stroke="rgb(0,0,0)" stroke-width="1.00" stroke-linecap="round"/>
<path d="M727.69,385.41L945.67,384.96" fill="none" stroke="rgb(0,0,0)" stroke-width="1.00" stroke-linecap="round"/>
<path d="M726.24,382.75L946.50,385.49" fill="none" stroke="rgb(0,0,0)" stroke-width="1.00" stroke-linecap="round"/>
<text x="820.80" y="396.00" fill="rgb(0,0,0)" font-family="&quot;Architects Daughter&quot;, cursive" font-size="12.0" text-anchor="middle" dominant-baseline="central">+charge(amount): Payment</text>
<text x="795.60" y="414.00" fill="rgb(0,0,0)" font-family="&quot;Architects Daughter&quot;, cursive" font-size="12.0" text-anchor="middle" dominant-baseline="central">+refund(id): void</text>
</svg>