<svg xmlns="http://www.w3.org/2000/svg" width="986" height="774" viewBox="0 0 986 774">
<rect width="986" height="774" fill="#fff"/>
<path d="M39.97,443.01L42.74,445.91" fill="none" stroke="rgba(187,222,251,0.702)" stroke-width="1.00" stroke-linecap="round"/>
<path d="M39.60,431.69L54.60,445.61" fill="none" stroke="rgba(187,222,251,0.702)" stroke-width="1.00" stroke-linecap="round"/>
<path d="M39.53,419.92L65.86,446.34" fill="none" stroke="rgba(187,222,251,0.702)" stroke-width="1.00" stroke-linecap="round"/>
<path d="M39.68,409.00L77.14,446.46" fill="none" stroke="rgba(187,222,251,0.702)" stroke-width="1.00" stroke-linecap="round"/>
<path d="M40.22,397.67L88.35,445.56" fill="none" stroke="rgba(187,222,251,0.702)" stroke-width="1.00" stroke-linecap="round"/>
<path d="M39.93,385.91L99.44,446.14" fill="none" stroke="rgba(187,222,251,0.702)" stroke-width="1.00" stroke-linecap="round"/>
<path d="M39.76,374.80L110.78,446.26" fill="none" stroke="rgba(187,222,251,0.702)" stroke-width="1.00" stroke-linecap="round"/>
<path d="M40.03,363.57L122.79,445.85" fill="none" stroke="rgba(187,222,251,0.702)" stroke-width="1.00" stroke-linecap="round"/>
<path d="M40.17,352.72L134.02,445.60" fill="none" stroke="rgba(187,222,251,0.702)" stroke-width="1.00" stroke-linecap="round"/>
<path d="M40.43,341.43L145.31,445.92" fill="none" stroke="rgba(187,222,251,0.702)" stroke-width="1.00" stroke-linecap="round"/>
<path d="M40.42,330.08L156.18,446.24" fill="none" stroke="rgba(187,222,251,0.702)" stroke-width="1.00" stroke-linecap="round"/>
<path d="M39.87,318.14L168.17,445.85" fill="none" stroke="rgba(187,222,251,0.702)" stroke-width="1.00" stroke-linecap="round"/>
<path d="M46.68,314.24L179.16,445.54" fill="none" stroke="rgba(187,222,251,0.702)" stroke-width="1.00" stroke-linecap="round"/>
<path d="M58.71,313.96L190.47,445.55" fill="none" stroke="rgba(187,222,251,0.702)" stroke-width="1.00" stroke-linecap="round"/>
<path d="M69.89,313.59L201.81,445.76" fill="none" stroke="rgba(187,222,251,0.702)" stroke-width="1.00" stroke-linecap="round"/>
<path d="M81.06,314.32L212.73,445.72" fill="none" stroke="rgba(187,222,251,0.702)" stroke-width="1.00" stroke-linecap="round"/>
<path d="M92.34,314.37L223.77,445.56" fill="none" stroke="rgba(187,222,251,0.702)" stroke-width="1.00" stroke-linecap="round"/>
<path d="M104.06,314.11L235.98,446.28" fill="none" stroke="rgba(187,222,251,0.702)" stroke-width="1.00" stroke-linecap="round"/>
<path d="M114.72,314.43L246.85,446.48" fill="none" stroke="rgba(187,222,251,0.702)" stroke-width="1.00" stroke-linecap="round"/>
<path d="M126.52,313.79L258.50,445.99" fill="none" stroke="rgba(187,222,251,0.702)" stroke-width="1.00" stroke-linecap="round"/>
<path d="M137.28,313.66L269.08,445.60" fill="none" stroke="rgba(187,222,251,0.702)" stroke-width="1.00" stroke-linecap="round"/>
<path d="M149.16,313.63L281.21,446.17" fill="none" stroke="rgba(187,222,251,0.702)" stroke-width="1.00" stroke-linecap="round"/>
<path d="M160.19,314.05L290.72,444.65" fill="none" stroke="rgba(187,222,251,0.702)" stroke-width="1.00" stroke-linecap="round"/>
<path d="M171.81,314.36L290.61,432.49" fill="none" stroke="rgba(187,222,251,0.702)" stroke-width="1.00" stroke-linecap="round"/>
<path d="M182.59,314.00L290.78,422.14" fill="none" stroke="rgba(187,222,251,0.702)" stroke-width="1.00" stroke-linecap="round"/>
<path d="M194.26,314.06L289.90,410.53" fill="none" stroke="rgba(187,222,251,0.702)" stroke-width="1.00" stroke-linecap="round"/>
<path d="M205.21,313.66L290.49,398.94" fill="none" stroke="rgba(187,222,251,0.702)" stroke-width="1.00" stroke-linecap="round"/>
<path d="M216.69,314.05L289.90,387.43" fill="none" stroke="rgba(187,222,251,0.702)" stroke-width="1.00" stroke-linecap="round"/>
<path d="M227.67,314.47L290.86,376.48" fill="none" stroke="rgba(187,222,251,0.702)" stroke-width="1.00" stroke-linecap="round"/>
<path d="M239.80,313.94L290.16,365.47" fill="none" stroke="rgba(187,222,251,0.702)" stroke-width="1.00" stroke-linecap="round"/>
<path d="M250.35,313.74L290.78,353.91" fill="none" stroke="rgba(187,222,251,0.702)" stroke-width="1.00" stroke-linecap="round"/>
<path d="M261.48,313.89L290.02,341.98" fill="none" stroke="rgba(187,222,251,0.702)" stroke-width="1.00" stroke-linecap="round"/>
<path d="M272.89,314.45L290.81,331.51" fill="none" stroke="rgba(187,222,251,0.702)" stroke-width="1.00" stroke-linecap="round"/>
<path d="M284.12,313.86L290.81,319.79" fill="none" stroke="rgba(187,222,251,0.702)" stroke-width="1.00" stroke-linecap="round"/>
<path d="M38.54,314.35L291.00,313.32L291.70,446.29L40.18,445.01Z" fill="none" stroke="rgb(0,0,0)" stroke-width="2.00" stroke-linecap="round"/>
<path d="M38.98,313.34L289.05,312.88L290.92,444.99L38.74,447.26Z" fill="none" stroke="rgb(0,0,0)" stroke-width="2.00" stroke-linecap="round"/>
<text x="165.20" y="329.00" fill="rgb(0,0,0)" font-family="&quot;Architects Daughter&quot;, cursive" font-size="16.0" text-anchor="middle" dominant-baseline="central">Order</text>
<path d="M39.86,344.44L290.66,345.12" fill="none" stroke="rgb(0,0,0)" stroke-width="1.00" stroke-linecap="round"/>
<path d="M40.00,344.48L290.34,343.11" fill="none" stroke="rgb(0,0,0)" stroke-width="1.00" stroke-linecap="round"/>
<text x="80.40" y="356.00" fill="rgb(0,0,0)" font-family="&quot;Architects Daughter&quot;, cursive" font-size="12.0" text-anchor="middle" dominant-baseline="central">-id: UUID</text>
<text x="116.40" y="374.00" fill="rgb(0,0,0)" font-family="&quot;Architects Daughter&quot;, cursive" font-size="12.0" text-anchor="middle" dominant-baseline="central">-items: OrderItem[]</text>
<text x="94.80" y="392.00" fill="rgb(0,0,0)" font-family="&quot;Architects Daughter&quot;, cursive" font-size="12.0" text-anchor="middle" dominant-baseline="central">-total: Money</text>
<path d="M39.67,403.54L289.04,405.42" fill="none" stroke="rgb(0,0,0)" stroke-width="1.00" stroke-linecap="round"/>
<path d="M40.82,402.58L290.11,403.00" fill="none" stroke="rgb(0,0,0)" stroke-width="1.00" stroke-linecap="round"/>
<text x="148.80" y="416.00" fill="rgb(0,0,0)" font-family="&quot;Architects Daughter&quot;, cursive" font-size="12.0" text-anchor="middle" dominant-baseline="central">+addItem(product, qty): void</text>
<text x="102.00" y="434.00" fill="rgb(0,0,0)" font-family="&quot;Architects Daughter&quot;, cursive" font-size="12.0" text-anchor="middle" dominant-baseline="central">+submit(): void</text>
<path d="M153.68,605.80L244.93,698.21" fill="none" stroke="rgba(200,230,201,0.702)" stroke-width="1.00" stroke-linecap="round"/>
<path d="M164.67,605.98L245.06,686.64" fill="none" stroke="rgba(200,230,201,0.702)" stroke-width="1.00" stroke-linecap="round"/>
<path d="M176.34,605.73L245.21,675.22" fill="none" stroke="rgba(200,230,201,0.702)" stroke-width="1.00" stroke-linecap="round"/>
<path d="M187.86,606.10L245.31,664.00" fill="none" stroke="rgba(200,230,201,0.702)" stroke-width="1.00" stroke-linecap="round"/>
<path d="M198.41,605.80L244.78,652.14" fill="none" stroke="rgba(200,230,201,0.702)" stroke-width="1.00" stroke-linecap="round"/>
<path d="M209.90,605.99L245.31,641.01" fill="none" stroke="rgba(200,230,201,0.702)" stroke-width="1.00" stroke-linecap="round"/>
<path d="M221.52,606.34L245.36,630.17" fill="none" stroke="rgba(200,230,201,0.702)" stroke-width="1.00" stroke-linecap="round"/>
<path d="M232.39,605.62L244.89,618.69" fill="none" stroke="rgba(200,230,201,0.702)" stroke-width="1.00" stroke-linecap="round"/>
<path d="M244.42,605.74L244.70,606.96" fill="none" stroke="rgba(200,230,201,0.702)" stroke-width="1.00" stroke-linecap="round"/>
<path d="M86.13,606.82L244.31,604.51L245.54,735.48L86.42,733.04Z" fill="none" stroke="rgb(0,0,0)" stroke-width="2.00" stroke-linecap="round"/>
<path d="M85.36,606.22L246.65,607.37L245.18,734.73L86.37,733.52Z" fill="none" stroke="rgb(0,0,0)" stroke-width="2.00" stroke-linecap="round"/>
<text x="165.20" y="636.00" fill="rgb(0,0,0)" font-family="&quot;Architects Daughter&quot;, cursive" font-size="16.0" text-anchor="middle" dominant-baseline="central">OrderStatus</text>
<text x="165.20" y="620.00" fill="rgb(0,0,0)" font-family="&quot;Architects Daughter&quot;, cursive" font-size="12.0" text-anchor="middle" dominant-baseline="central">«enum»</text>
<path d="M84.85,649.13L244.52,651.46" fill="none" stroke="rgb(0,0,0)" stroke-width="1.00" stroke-linecap="round"/>
<path d="M85.86,650.31L245.23,649.08" fill="none" stroke="rgb(0,0,0)" stroke-width="1.00" stroke-linecap="round"/>
<text x="114.80" y="662.00" fill="rgb(0,0,0)" font-family="&quot;Architects Daughter&quot;, cursive" font-size="12.0" text-anchor="middle" dominant-baseline="central">+DRAFT</text>
<text x="129.20" y="680.00" fill="rgb(0,0,0)" font-family="&quot;Architects Daughter&quot;, cursive" font-size="12.0" text-anchor="middle" dominant-baseline="central">+SUBMITTED</text>
<text x="111.20" y="698.00" fill="rgb(0,0,0)" font-family="&quot;Architects Daughter&quot;, cursive" font-size="12.0" text-anchor="middle" dominant-baseline="central">+PAID</text>
<text x="122.00" y="716.00" fill="rgb(0,0,0)" font-family="&quot;Architects Daughter&quot;, cursive" font-size="12.0" text-anchor="middle" dominant-baseline="central">+SHIPPED</text>
<path d="M85.10,728.75L246.25,728.06" fill="none" stroke="rgb(0,0,0)" stroke-width="1.00" stroke-linecap="round"/>
<path d="M84.64,728.06L244.52,726.73" fill="none" stroke="rgb(0,0,0)" stroke-width="1.00" stroke-linecap="round"/>
<path d="M387.30,145.63L395.82,153.53" fill="none" stroke="rgba(255,224,178,0.702)" stroke-width="1.00" stroke-linecap="round"/>
<path d="M387.09,134.50L406.56,153.84" fill="none" stroke="rgba(255,224,178,0.702)" stroke-width="1.00" stroke-linecap="round"/>
<path d="M387.37,122.87L417.93,153.75" fill="none" stroke="rgba(255,224,178,0.702)" stroke-width="1.00" stroke-linecap="round"/>
<path d="M387.15,111.67L429.96,154.11" fill="none" stroke="rgba(255,224,178,0.702)" stroke-width="1.00" stroke-linecap="round"/>
<path d="M387.50,100.48L440.41,154.01" fill="none" stroke="rgba(255,224,178,0.702)" stroke-width="1.00" stroke-linecap="round"/>
<path d="M386.97,89.35L452.39,153.74" fill="none" stroke="rgba(255,224,178,0.702)" stroke-width="1.00" stroke-linecap="round"/>
<path d="M386.72,77.70L463.83,153.73" fill="none" stroke="rgba(255,224,178,0.702)" stroke-width="1.00" stroke-linecap="round"/>
<path d="M387.19,66.08L474.93,154.31" fill="none" stroke="rgba(255,224,178,0.702)" stroke-width="1.00" stroke-linecap="round"/>
<path d="M386.88,55.06L486.25,154.02" fill="none" stroke="rgba(255,224,178,0.702)" stroke-width="1.00" stroke-linecap="round"/>
<path d="M386.96,44.00L497.63,154.31" fill="none" stroke="rgba(255,224,178,0.702)" stroke-width="1.00" stroke-linecap="round"/>
<path d="M394.81,39.60L508.56,154.37" fill="none" stroke="rgba(255,224,178,0.702)" stroke-width="1.00" stroke-linecap="round"/>
<path d="M406.22,39.87L520.16,153.89" fill="none" stroke="rgba(255,224,178,0.702)" stroke-width="1.00" stroke-linecap="round"/>
<path d="M417.77,39.82L531.48,153.53" fill="none" stroke="rgba(255,224,178,0.702)" stroke-width="1.00" stroke-linecap="round"/>
<path d="M428.79,40.37L542.14,153.83" fill="none" stroke="rgba(255,224,178,0.702)" stroke-width="1.00" stroke-linecap="round"/>
<path d="M439.96,40.11L554.18,154.47" fill="none" stroke="rgba(255,224,178,0.702)" stroke-width="1.00" stroke-linecap="round"/>
<path d="M451.48,39.98L565.05,153.51" fill="none" stroke="rgba(255,224,178,0.702)" stroke-width="1.00" stroke-linecap="round"/>
<path d="M462.50,40.26L576.53,154.48" fill="none" stroke="rgba(255,224,178,0.702)" stroke-width="1.00" stroke-linecap="round"/>
<path d="M473.70,39.77L587.75,154.12" fill="none" stroke="rgba(255,224,178,0.702)" stroke-width="1.00" stroke-linecap="round"/>
<path d="M485.46,40.47L598.90,154.40" fill="none" stroke="rgba(255,224,178,0.702)" stroke-width="1.00" stroke-linecap="round"/>
<path d="M496.55,40.31L610.74,153.91" fill="none" stroke="rgba(255,224,178,0.702)" stroke-width="1.00" stroke-linecap="round"/>
<path d="M507.59,39.54L621.75,153.95" fill="none" stroke="rgba(255,224,178,0.702)" stroke-width="1.00" stroke-linecap="round"/>
<path d="M519.42,40.39L629.44,150.19" fill="none" stroke="rgba(255,224,178,0.702)" stroke-width="1.00" stroke-linecap="round"/>
<path d="M530.62,40.20L629.90,139.46" fill="none" stroke="rgba(255,224,178,0.702)" stroke-width="1.00" stroke-linecap="round"/>
<path d="M542.10,39.96L629.75,127.97" fill="none" stroke="rgba(255,224,178,0.702)" stroke-width="1.00" stroke-linecap="round"/>
<path d="M553.25,39.51L629.69,116.85" fill="none" stroke="rgba(255,224,178,0.702)" stroke-width="1.00" stroke-linecap="round"/>
<path d="M564.52,40.07L629.43,104.88" fill="none" stroke="rgba(255,224,178,0.702)" stroke-width="1.00" stroke-linecap="round"/>
<path d="M575.72,39.51L629.73,93.72" fill="none" stroke="rgba(255,224,178,0.702)" stroke-width="1.00" stroke-linecap="round"/>
<path d="M587.19,40.06L629.54,82.83" fill="none" stroke="rgba(255,224,178,0.702)" stroke-width="1.00" stroke-linecap="round"/>
<path d="M598.00,39.81L629.95,71.34" fill="none" stroke="rgba(255,224,178,0.702)" stroke-width="1.00" stroke-linecap="round"/>
<path d="M609.22,39.74L630.01,60.12" fill="none" stroke="rgba(255,224,178,0.702)" stroke-width="1.00" stroke-linecap="round"/>
<path d="M620.66,40.49L630.19,48.46" fill="none" stroke="rgba(255,224,178,0.702)" stroke-width="1.00" stroke-linecap="round"/>
<path d="M386.05,39.54L629.21,40.01L628.76,153.97L385.96,154.98Z" fill="none" stroke="rgb(0,0,0)" stroke-width="2.00" stroke-linecap="round"/>
<path d="M387.73,41.48L630.95,40.72L630.72,154.58L385.61,153.97Z" fill="none" stroke="rgb(0,0,0)" stroke-width="2.00" stroke-linecap="round"/>
<text x="508.40" y="55.00" fill="rgb(0,0,0)" font-family="&quot;Architects Daughter&quot;, cursive" font-size="16.0" text-anchor="middle" dominant-baseline="central">OrderService</text>
<path d="M388.50,69.47L628.37,69.69" fill="none" stroke="rgb(0,0,0)" stroke-width="1.00" stroke-linecap="round"/>
<path d="M387.66,68.87L630.98,70.17" fill="none" stroke="rgb(0,0,0)" stroke-width="1.00" stroke-linecap="round"/>
<text x="474.30" y="82.00" fill="rgb(0,0,0)" font-family="&quot;Architects Daughter&quot;, cursive" font-size="12.0" text-anchor="middle" dominant-baseline="central">-repo: OrderRepository</text>
<text x="481.50" y="100.00" fill="rgb(0,0,0)" font-family="&quot;Architects Daughter&quot;, cursive" font-size="12.0" text-anchor="middle" dominant-baseline="central">-payment: PaymentGateway</text>
<path d="M385.71,111.26L629.85,113.12" fill="none" stroke="rgb(0,0,0)" stroke-width="1.00" stroke-linecap="round"/>
<path d="M386.83,111.27L630.40,110.59" fill="none" stroke="rgb(0,0,0)" stroke-width="1.00" stroke-linecap="round"/>
<text x="485.10" y="124.00" fill="rgb(0,0,0)" font-family="&quot;Architects Daughter&quot;, cursive" font-size="12.0" text-anchor="middle" dominant-baseline="central">+createOrder(cart): Order</text>
<text x="492.30" y="142.00" fill="rgb(0,0,0)" font-family="&quot;Architects Daughter&quot;, cursive" font-size="12.0" text-anchor="middle" dominant-baseline="central">+checkout(orderId): Payment</text>
<path d="M410.00,421.58L415.10,425.85" fill="none" stroke="rgba(225,190,231,0.702)" stroke-width="1.00" stroke-linecap="round"/>
<path d="M410.71,410.85L426.07,425.65" fill="none" stroke="rgba(225,190,231,0.702)" stroke-width="1.00" stroke-linecap="round"/>
<path d="M410.04,399.47L437.25,426.00" fill="none" stroke="rgba(225,190,231,0.702)" stroke-width="1.00" stroke-linecap="round"/>
<path d="M410.27,387.32L448.34,425.62" fill="none" stroke="rgba(225,190,231,0.702)" stroke-width="1.00" stroke-linecap="round"/>
<path d="M410.30,376.80L460.29,425.72" fill="none" stroke="rgba(225,190,231,0.702)" stroke-width="1.00" stroke-linecap="round"/>
<path d="M410.37,365.64L470.88,426.46" fill="none" stroke="rgba(225,190,231,0.702)" stroke-width="1.00" stroke-linecap="round"/>
<path d="M410.22,353.64L482.71,426.06" fill="none" stroke="rgba(225,190,231,0.702)" stroke-width="1.00" stroke-linecap="round"/>
<path d="M410.16,342.78L494.36,425.97" fill="none" stroke="rgba(225,190,231,0.702)" stroke-width="1.00" stroke-linecap="round"/>
<path d="M412.93,334.27L505.66,426.28" fill="none" stroke="rgba(225,190,231,0.702)" stroke-width="1.00" stroke-linecap="round"/>
<path d="M424.04,334.19L516.98,425.83" fill="none" stroke="rgba(225,190,231,0.702)" stroke-width="1.00" stroke-linecap="round"/>
<path d="M435.98,334.14L527.52,426.00" fill="none" stroke="rgba(225,190,231,0.702)" stroke-width="1.00" stroke-linecap="round"/>
<path d="M447.01,334.10L539.30,425.83" fill="none" stroke="rgba(225,190,231,0.702)" stroke-width="1.00" stroke-linecap="round"/>
<path d="M458.07,334.39L550.07,426.44" fill="none" stroke="rgba(225,190,231,0.702)" stroke-width="1.00" stroke-linecap="round"/>
<path d="M470.12,334.49L561.70,426.22" fill="none" stroke="rgba(225,190,231,0.702)" stroke-width="1.00" stroke-linecap="round"/>
<path d="M481.30,334.30L573.28,425.91" fill="none" stroke="rgba(225,190,231,0.702)" stroke-width="1.00" stroke-linecap="round"/>
<path d="M492.24,333.83L584.55,426.14" fill="none" stroke="rgba(225,190,231,0.702)" stroke-width="1.00" stroke-linecap="round"/>
<path d="M503.50,334.34L595.78,426.28" fill="none" stroke="rgba(225,190,231,0.702)" stroke-width="1.00" stroke-linecap="round"/>
<path d="M514.52,334.03L606.28,425.68" fill="none" stroke="rgba(225,190,231,0.702)" stroke-width="1.00" stroke-linecap="round"/>
<path d="M525.97,334.17L605.90,413.73" fill="none" stroke="rgba(225,190,231,0.702)" stroke-width="1.00" stroke-linecap="round"/>
<path d="M537.95,333.96L606.62,402.38" fill="none" stroke="rgba(225,190,231,0.702)" stroke-width="1.00" stroke-linecap="round"/>
<path d="M548.89,333.76L606.53,391.64" fill="none" stroke="rgba(225,190,231,0.702)" stroke-width="1.00" stroke-linecap="round"/>
<path d="M560.59,334.19L606.76,380.26" fill="none" stroke="rgba(225,190,231,0.702)" stroke-width="1.00" stroke-linecap="round"/>
<path d="M571.32,333.67L606.65,368.81" fill="none" stroke="rgba(225,190,231,0.702)" stroke-width="1.00" stroke-linecap="round"/>
<path d="M583.36,333.81L606.52,357.43" fill="none" stroke="rgba(225,190,231,0.702)" stroke-width="1.00" stroke-linecap="round"/>
<path d="M593.87,334.41L606.13,346.28" fill="none" stroke="rgba(225,190,231,0.702)" stroke-width="1.00" stroke-linecap="round"/>
<path d="M605.56,334.31L606.63,335.13" fill="none" stroke="rgba(225,190,231,0.702)" stroke-width="1.00" stroke-linecap="round"/>
<path d="M410.81,333.79L605.13,333.08L605.67,425.12L411.02,425.30Z" fill="none" stroke="rgb(0,0,0)" stroke-width="2.00" stroke-linecap="round"/>
<path d="M411.26,334.87L606.68,335.21L607.82,425.15L409.78,425.47Z" fill="none" stroke="rgb(0,0,0)" stroke-width="2.00" stroke-linecap="round"/>
<text x="508.40" y="364.00" fill="rgb(0,0,0)" font-family="&quot;Architects Daughter&quot;, cursive" font-size="16.0" text-anchor="middle" dominant-baseline="central">OrderRepository</text>
<text x="508.40" y="348.00" fill="rgb(0,0,0)" font-family="&quot;Architects Daughter&quot;, cursive" font-size="12.0" text-anchor="middle" dominant-baseline="central">«interface»</text>
<path d="M411.76,379.14L605.49,377.00" fill="none" stroke="rgb(0,0,0)" stroke-width="1.00" stroke-linecap="round"/>
<path d="M408.90,378.18L606.74,378.02" fill="none" stroke="rgb(0,0,0)" stroke-width="1.00" stroke-linecap="round"/>
<path d="M411.47,383.41L607.41,384.85" fill="none" stroke="rgb(0,0,0)" stroke-width="1.00" stroke-linecap="round"/>
<path d="M409.16,383.76L607.57,383.10" fill="none" stroke="rgb(0,0,0)" stroke-width="1.00" stroke-linecap="round"/>
<text x="490.40" y="396.00" fill="rgb(0,0,0)" font-family="&quot;Architects Daughter&quot;, cursive" font-size="12.0" text-anchor="middle" dominant-baseline="central">+findById(id): Order</text>
<text x="483.20" y="414.00" fill="rgb(0,0,0)" font-family="&quot;Architects Daughter&quot;, cursive" font-size="12.0" text-anchor="middle" dominant-baseline="central">+save(order): void</text>
<path d="M726.25,418.56L733.28,426.09" fill="none" stroke="rgba(255,249,196,0.702)" stroke-width="1.00" stroke-linecap="round"/>
<path d="M726.87,407.85L745.37,425.82" fill="none" stroke="rgba(255,249,196,0.702)" stroke-width="1.00" stroke-linecap="round"/>
<path d="M726.71,395.88L756.47,425.73" fill="none" stroke="rgba(255,249,196,0.702)" stroke-width="1.00" stroke-linecap="round"/>
<path d="M726.53,384.44L767.72,425.65" fill="none" stroke="rgba(255,249,196,0.702)" stroke-width="1.00" stroke-linecap="round"/>
<path d="M726.07,373.34L779.37,425.55" fill="none" stroke="rgba(255,249,196,0.702)" stroke-width="1.00" stroke-linecap="round"/>
<path d="M725.96,362.10L790.11,425.81" fill="none" stroke="rgba(255,249,196,0.702)" stroke-width="1.00" stroke-linecap="round"/>
<path d="M726.48,350.70L801.81,425.67" fill="none" stroke="rgba(255,249,196,0.702)" stroke-width="1.00" stroke-linecap="round"/>
<path d="M726.67,339.75L813.04,426.39" fill="none" stroke="rgba(255,249,196,0.702)" stroke-width="1.00" stroke-linecap="round"/>
<path d="M732.37,333.59L824.67,426.13" fill="none" stroke="rgba(255,249,196,0.702)" stroke-width="1.00" stroke-linecap="round"/>
<path d="M743.93,334.00L835.23,426.12" fill="none" stroke="rgba(255,249,196,0.702)" stroke-width="1.00" stroke-linecap="round"/>
<path d="M754.63,334.31L847.04,426.14" fill="none" stroke="rgba(255,249,196,0.702)" stroke-width="1.00" stroke-linecap="round"/>
<path d="M766.41,334.36L858.02,425.77" fill="none" stroke="rgba(255,249,196,0.702)" stroke-width="1.00" stroke-linecap="round"/>
<path d="M777.32,333.83L869.02,425.56" fill="none" stroke="rgba(255,249,196,0.702)" stroke-width="1.00" stroke-linecap="round"/>
<path d="M788.68,333.56L880.57,425.57" fill="none" stroke="rgba(255,249,196,0.702)" stroke-width="1.00" stroke-linecap="round"/>
<path d="M800.31,334.16L892.14,426.36" fill="none" stroke="rgba(255,249,196,0.702)" stroke-width="1.00" stroke-linecap="round"/>
<path d="M811.31,334.33L903.50,425.87" fill="none" stroke="rgba(255,249,196,0.702)" stroke-width="1.00" stroke-linecap="round"/>
<path d="M823.24,333.54L914.43,426.35" fill="none" stroke="rgba(255,249,196,0.702)" stroke-width="1.00" stroke-linecap="round"/>
<path d="M834.07,334.43L926.35,425.79" fill="none" stroke="rgba(255,249,196,0.702)" stroke-width="1.00" stroke-linecap="round"/>
<path d="M844.96,333.62L937.09,425.89" fill="none" stroke="rgba(255,249,196,0.702)" stroke-width="1.00" stroke-linecap="round"/>
<path d="M857.07,334.36L945.39,423.03" fill="none" stroke="rgba(255,249,196,0.702)" stroke-width="1.00" stroke-linecap="round"/>
<path d="M867.51,333.66L945.37,411.48" fill="none" stroke="rgba(255,249,196,0.702)" stroke-width="1.00" stroke-linecap="round"/>
<path d="M879.64,334.21L946.04,400.59" fill="none" stroke="rgba(255,249,196,0.702)" stroke-width="1.00" stroke-linecap="round"/>
<path d="M890.80,333.96L945.51,388.71" fill="none" stroke="rgba(255,249,196,0.702)" stroke-width="1.00" stroke-linecap="round"/>
<path d="M901.77,333.54L945.42,378.13" fill="none" stroke="rgba(255,249,196,0.702)" stroke-width="1.00" stroke-linecap="round"/>
<path d="M912.86,334.33L945.73,365.93" fill="none" stroke="rgba(255,249,196,0.702)" stroke-width="1.00" stroke-linecap="round"/>
<path d="M924.17,334.50L945.67,354.75" fill="none" stroke="rgba(255,249,196,0.702)" stroke-width="1.00" stroke-linecap="round"/>
<path d="M935.72,333.73L945.14,343.23" fill="none" stroke="rgba(255,249,196,0.702)" stroke-width="1.00" stroke-linecap="round"/>
<path d="M725.89,333.93L946.84,335.34L946.95,426.02L726.91,426.04Z" fill="none" stroke="rgb(0,0,0)" stroke-width="2.00" stroke-linecap="round"/>
<path d="M727.80,333.87L946.32,333.41L944.70,425.43L727.62,427.49Z" fill="none" stroke="rgb(0,0,0)" stroke-width="2.00" stroke-linecap="round"/>
<text x="836.00" y="364.00" fill="rgb(0,0,0)" font-family="&quot;Architects Daughter&quot;, cursive" font-size="16.0" text-anchor="middle" dominant-baseline="central">PaymentGateway</text>
<text x="836.00" y="348.00" fill="rgb(0,0,0)" font-family="&quot;Architects Daughter&quot;, cursive" font-size="12.0" text-anchor="middle" dominant-baseline="central">«interface»</text>
<path d="M726.99,377.80L945.19,378.95" fill="none" stroke="rgb(0,0,0)" stroke-width="1.00" stroke-linecap="round"/>
<path d="M727.28,376.71L945.68,377.92" fill="none" stroke="rgb(0,0,0)" stroke-width="1.00" stroke-linecap="round"/>
<path d="M726.49,385.46L945.24,382.83" fill="none" stroke="rgb(0,0,0)" stroke-width="1.00" stroke-linecap="round"/>
<path d="M725.73,382.87L945.23,383.45" fill="none" stroke="rgb(0,0,0)" stroke-width="1.00" stroke-linecap="round"/>
<text x="820.80" y="396.00" fill="rgb(0,0,0)" font-family="&quot;Architects Daughter&quot;, cursive" font-size="12.0" text-anchor="middle" dominant-baseline="central">+charge(amount): Payment</text>
<text x="795.60" y="414.00" fill="rgb(0,0,0)" font-family="&quot;Architects Daughter&quot;, cursive" font-size="12.0" text-anchor="middle" dominant-baseline="central">+refund(id): void</text>
<path d="M387.10,97.00L338.75,97.00L338.75,380.00L290.40,380.00" fill="none" stroke="rgb(51,51,51)" stroke-width="1.50" stroke-linecap="round" stroke-dasharray="6 6"/>
<path d="M277.63,384.02L290.86,380.68L277.84,377.33" fill="none" stroke="rgb(51,51,51)" stroke-width="2.00" stroke-linecap="round"/>
<path d="M279.64,383.18L288.91,380.98L280.42,374.78" fill="none" stroke="rgb(51,51,51)" stroke-width="2.00" stroke-linecap="round"/>
<path d="M310.55,219.50L366.95,219.50L366.95,237.50L310.55,237.50Z" fill="rgba(248,248,248,0.878)" stroke="none"/>
<text x="338.75" y="230.50" fill="rgb(0,0,0)" font-family="&quot;Architects Daughter&quot;, cursive" font-size="12.0" text-anchor="middle" dominant-baseline="central">creates</text>
<path d="M507.17,154.60L509.71,332.68" fill="none" stroke="rgb(51,51,51)" stroke-width="1.50" stroke-linecap="round"/>
<path d="M507.63,154.12L507.13,334.87" fill="none" stroke="rgb(51,51,51)" stroke-width="1.50" stroke-linecap="round"/>
<path d="M508.40,154.00L512.00,146.00L508.40,138.00L504.80,146.00Z" fill="rgb(255,255,255)" stroke="none"/>
<path d="M507.03,153.66L512.10,145.67L507.89,138.57L506.12,145.72Z" fill="none" stroke="rgb(51,51,51)" stroke-width="1.50" stroke-linecap="round"/>
<path d="M507.80,154.99L513.09,145.67L508.30,136.93L505.84,145.25Z" fill="none" stroke="rgb(51,51,51)" stroke-width="1.50" stroke-linecap="round"/>
<path d="M629.47,96.24L676.96,96.86L678.95,381.15L727.02,380.44" fill="none" stroke="rgb(51,51,51)" stroke-width="1.50" stroke-linecap="round"/>
<path d="M629.15,96.01L679.03,97.52L677.65,379.80L727.15,380.21" fill="none" stroke="rgb(51,51,51)" stroke-width="1.50" stroke-linecap="round"/>
<path d="M629.70,97.00L621.70,93.40L613.70,97.00L621.70,100.60Z" fill="rgb(255,255,255)" stroke="none"/>
<path d="M631.17,96.87L622.33,93.46L614.26,96.81L622.89,100.18Z" fill="none" stroke="rgb(51,51,51)" stroke-width="1.50" stroke-linecap="round"/>
<path d="M631.05,96.68L621.80,93.73L615.05,96.52L622.42,100.85Z" fill="none" stroke="rgb(51,51,51)" stroke-width="1.50" stroke-linecap="round"/>
<path d="M164.38,447.44L164.68,606.38" fill="none" stroke="rgb(51,51,51)" stroke-width="1.50" stroke-linecap="round"/>
<path d="M166.30,445.16L164.20,607.45" fill="none" stroke="rgb(51,51,51)" stroke-width="1.50" stroke-linecap="round"/>
<path d="M165.20,446.00L168.80,438.00L165.20,430.00L161.60,438.00Z" fill="rgb(51,51,51)" stroke="none"/>
<path d="M163.73,445.36L168.28,437.55L164.06,430.63L161.86,438.32Z" fill="none" stroke="rgb(51,51,51)" stroke-width="1.00" stroke-linecap="round"/>
<path d="M166.49,447.41L168.87,438.96L165.04,428.75L162.50,439.49Z" fill="none" stroke="rgb(51,51,51)" stroke-width="1.00" stroke-linecap="round"/>
</svg>