<svg xmlns="http://www.w3.org/2000/svg" width="963" height="560" viewBox="0 0 963 560">
<rect width="963" height="560" fill="#fff"/>
<path d="M538.40,40.00L922.40,40.00L922.40,140.00L538.40,140.00Z" fill="rgb(252,228,236)" stroke="none"/>
<path d="M538.32,40.72L920.93,39.73L921.20,140.72L538.55,138.84Z" fill="none" stroke="rgb(204,204,204)" stroke-width="1.00" stroke-linecap="round"/>
<path d="M537.00,39.34L922.40,41.03L921.44,140.52L538.31,141.39Z" fill="none" stroke="rgb(204,204,204)" stroke-width="1.00" stroke-linecap="round"/>
<text x="546.40" y="56.00" fill="rgb(102,102,102)" font-family="&quot;Architects Daughter&quot;, cursive" font-size="12.0" text-anchor="middle" dominant-baseline="central">Frontend</text>
<path d="M40.00,220.00L458.40,220.00L458.40,520.00L40.00,520.00Z" fill="rgb(227,242,253)" stroke="none"/>
<path d="M40.67,220.46L458.00,218.69L458.20,519.13L38.92,520.41Z" fill="none" stroke="rgb(204,204,204)" stroke-width="1.00" stroke-linecap="round"/>
<path d="M39.28,219.74L457.40,220.78L458.48,520.01L41.08,519.56Z" fill="none" stroke="rgb(204,204,204)" stroke-width="1.00" stroke-linecap="round"/>
<text x="48.00" y="236.00" fill="rgb(102,102,102)" font-family="&quot;Architects Daughter&quot;, cursive" font-size="12.0" text-anchor="middle" dominant-baseline="central">Backend</text>
<path d="M618.90,121.40L619.23,178.79L197.50,181.47L196.95,239.77" fill="none" stroke="rgb(51,51,51)" stroke-width="1.50" stroke-linecap="round"/>
<path d="M619.65,121.35L617.83,180.73L195.82,179.48L197.65,239.54" fill="none" stroke="rgb(51,51,51)" stroke-width="1.50" stroke-linecap="round"/>
<path d="M199.37,252.00L196.68,238.62L193.29,251.16" fill="none" stroke="rgb(51,51,51)" stroke-width="2.00" stroke-linecap="round"/>
<path d="M200.80,249.93L197.00,238.78L192.66,250.56" fill="none" stroke="rgb(51,51,51)" stroke-width="2.00" stroke-linecap="round"/>
<path d="M375.50,161.00L439.10,161.00L439.10,179.00L375.50,179.00Z" fill="rgba(248,248,248,0.878)" stroke="none"/>
<text x="407.30" y="172.00" fill="rgb(0,0,0)" font-family="&quot;Architects Daughter&quot;, cursive" font-size="12.0" text-anchor="middle" dominant-baseline="central">REST API</text>
<path d="M830.76,120.95L829.78,179.17L297.27,181.10L295.57,238.68" fill="none" stroke="rgb(51,51,51)" stroke-width="1.50" stroke-linecap="round"/>
<path d="M831.89,120.32L831.63,180.85L296.53,181.29L296.90,241.43" fill="none" stroke="rgb(51,51,51)" stroke-width="1.50" stroke-linecap="round"/>
<path d="M302.11,250.65L297.91,239.98L292.20,250.24" fill="none" stroke="rgb(51,51,51)" stroke-width="2.00" stroke-linecap="round"/>
<path d="M299.85,250.09L298.03,238.88L294.06,251.79" fill="none" stroke="rgb(51,51,51)" stroke-width="2.00" stroke-linecap="round"/>
<path d="M535.50,161.00L591.90,161.00L591.90,179.00L535.50,179.00Z" fill="rgba(248,248,248,0.878)" stroke="none"/>
<text x="563.70" y="172.00" fill="rgb(0,0,0)" font-family="&quot;Architects Daughter&quot;, cursive" font-size="12.0" text-anchor="middle" dominant-baseline="central">GraphQL</text>
<path d="M196.36,300.15L197.17,361.15L133.09,361.09L132.62,418.63" fill="none" stroke="rgb(51,51,51)" stroke-width="1.50" stroke-linecap="round"/>
<path d="M195.67,299.99L197.35,361.50L132.54,360.19L130.51,420.61" fill="none" stroke="rgb(51,51,51)" stroke-width="1.50" stroke-linecap="round"/>
<path d="M135.58,430.26L132.27,419.79L127.85,431.41" fill="none" stroke="rgb(51,51,51)" stroke-width="2.00" stroke-linecap="round"/>
<path d="M134.62,430.46L130.97,421.40L129.26,431.56" fill="none" stroke="rgb(51,51,51)" stroke-width="2.00" stroke-linecap="round"/>
<path d="M135.90,341.00L192.30,341.00L192.30,359.00L135.90,359.00Z" fill="rgba(248,248,248,0.878)" stroke="none"/>
<text x="164.10" y="352.00" fill="rgb(0,0,0)" font-family="&quot;Architects Daughter&quot;, cursive" font-size="12.0" text-anchor="middle" dominant-baseline="central">queries</text>
<path d="M298.42,299.82L296.27,361.20L360.31,359.21L362.34,420.45" fill="none" stroke="rgb(51,51,51)" stroke-width="1.50" stroke-linecap="round"/>
<path d="M295.56,299.66L295.87,358.61L360.07,361.35L362.42,421.15" fill="none" stroke="rgb(51,51,51)" stroke-width="1.50" stroke-linecap="round"/>
<path d="M363.93,430.85L362.42,419.92L355.62,431.62" fill="none" stroke="rgb(51,51,51)" stroke-width="2.00" stroke-linecap="round"/>
<path d="M365.91,430.60L362.50,420.29L357.27,430.28" fill="none" stroke="rgb(51,51,51)" stroke-width="2.00" stroke-linecap="round"/>
<path d="M300.90,341.00L357.30,341.00L357.30,359.00L300.90,359.00Z" fill="rgba(248,248,248,0.878)" stroke="none"/>
<text x="329.10" y="352.00" fill="rgb(0,0,0)" font-family="&quot;Architects Daughter&quot;, cursive" font-size="12.0" text-anchor="middle" dominant-baseline="central">get/set</text>
<path d="M174.26,298.83L175.10,299.63" fill="none" stroke="rgba(187,222,251,0.702)" stroke-width="1.00" stroke-linecap="round"/>
<path d="M174.77,287.40L186.44,300.42" fill="none" stroke="rgba(187,222,251,0.702)" stroke-width="1.00" stroke-linecap="round"/>
<path d="M174.55,276.57L198.26,300.37" fill="none" stroke="rgba(187,222,251,0.702)" stroke-width="1.00" stroke-linecap="round"/>
<path d="M174.60,265.27L209.47,299.70" fill="none" stroke="rgba(187,222,251,0.702)" stroke-width="1.00" stroke-linecap="round"/>
<path d="M174.49,253.64L220.35,300.47" fill="none" stroke="rgba(187,222,251,0.702)" stroke-width="1.00" stroke-linecap="round"/>
<path d="M174.87,242.01L232.02,299.67" fill="none" stroke="rgba(187,222,251,0.702)" stroke-width="1.00" stroke-linecap="round"/>
<path d="M183.66,239.80L243.16,300.46" fill="none" stroke="rgba(187,222,251,0.702)" stroke-width="1.00" stroke-linecap="round"/>
<path d="M194.65,239.98L254.61,300.20" fill="none" stroke="rgba(187,222,251,0.702)" stroke-width="1.00" stroke-linecap="round"/>
<path d="M206.32,239.73L266.07,300.10" fill="none" stroke="rgba(187,222,251,0.702)" stroke-width="1.00" stroke-linecap="round"/>
<path d="M217.84,240.10L277.48,300.19" fill="none" stroke="rgba(187,222,251,0.702)" stroke-width="1.00" stroke-linecap="round"/>
<path d="M228.39,239.80L288.26,299.64" fill="none" stroke="rgba(187,222,251,0.702)" stroke-width="1.00" stroke-linecap="round"/>
<path d="M239.88,239.99L300.11,299.83" fill="none" stroke="rgba(187,222,251,0.702)" stroke-width="1.00" stroke-linecap="round"/>
<path d="M251.50,240.34L311.47,300.30" fill="none" stroke="rgba(187,222,251,0.702)" stroke-width="1.00" stroke-linecap="round"/>
<path d="M262.37,239.62L318.29,296.11" fill="none" stroke="rgba(187,222,251,0.702)" stroke-width="1.00" stroke-linecap="round"/>
<path d="M274.40,239.74L318.10,284.38" fill="none" stroke="rgba(187,222,251,0.702)" stroke-width="1.00" stroke-linecap="round"/>
<path d="M285.56,240.27L318.30,272.85" fill="none" stroke="rgba(187,222,251,0.702)" stroke-width="1.00" stroke-linecap="round"/>
<path d="M296.68,240.49L319.01,261.71" fill="none" stroke="rgba(187,222,251,0.702)" stroke-width="1.00" stroke-linecap="round"/>
<path d="M307.94,240.07L319.08,251.17" fill="none" stroke="rgba(187,222,251,0.702)" stroke-width="1.00" stroke-linecap="round"/>
<path d="M174.58,240.73L319.77,239.52L318.25,299.13L173.92,301.46Z" fill="none" stroke="rgb(21,101,192)" stroke-width="2.00" stroke-linecap="round"/>
<path d="M175.26,240.31L318.63,239.08L318.50,300.75L175.65,300.06Z" fill="none" stroke="rgb(21,101,192)" stroke-width="2.00" stroke-linecap="round"/>
<text x="246.60" y="270.00" fill="rgb(21,101,192)" font-family="&quot;Architects Daughter&quot;, cursive" font-size="16.0" text-anchor="middle" dominant-baseline="central">API Server</text>
<path d="M62.40,458.58L68.82,464.60" fill="none" stroke="rgba(200,230,201,0.702)" stroke-width="1.00" stroke-linecap="round"/>
<path d="M70.06,454.60L94.78,478.70" fill="none" stroke="rgba(200,230,201,0.702)" stroke-width="1.00" stroke-linecap="round"/>
<path d="M77.12,450.74L119.65,493.15" fill="none" stroke="rgba(200,230,201,0.702)" stroke-width="1.00" stroke-linecap="round"/>
<path d="M84.68,446.39L135.58,497.62" fill="none" stroke="rgba(200,230,201,0.702)" stroke-width="1.00" stroke-linecap="round"/>
<path d="M91.72,442.46L143.57,493.94" fill="none" stroke="rgba(200,230,201,0.702)" stroke-width="1.00" stroke-linecap="round"/>
<path d="M99.35,438.55L149.98,489.80" fill="none" stroke="rgba(200,230,201,0.702)" stroke-width="1.00" stroke-linecap="round"/>
<path d="M106.09,434.69L157.92,485.49" fill="none" stroke="rgba(200,230,201,0.702)" stroke-width="1.00" stroke-linecap="round"/>
<path d="M113.11,430.31L165.32,481.44" fill="none" stroke="rgba(200,230,201,0.702)" stroke-width="1.00" stroke-linecap="round"/>
<path d="M120.86,425.96L172.38,477.98" fill="none" stroke="rgba(200,230,201,0.702)" stroke-width="1.00" stroke-linecap="round"/>
<path d="M127.82,422.22L179.66,473.64" fill="none" stroke="rgba(200,230,201,0.702)" stroke-width="1.00" stroke-linecap="round"/>
<path d="M143.46,426.71L187.00,469.90" fill="none" stroke="rgba(200,230,201,0.702)" stroke-width="1.00" stroke-linecap="round"/>
<path d="M169.18,440.19L193.89,465.91" fill="none" stroke="rgba(200,230,201,0.702)" stroke-width="1.00" stroke-linecap="round"/>
<path d="M194.74,454.60L201.45,461.40" fill="none" stroke="rgba(200,230,201,0.702)" stroke-width="1.00" stroke-linecap="round"/>
<path d="M205.37,459.46C204.50,480.67 172.25,501.11 130.55,499.49C92.30,500.34 60.73,483.50 60.69,459.95C59.38,436.44 92.04,420.79 131.87,421.45C171.21,419.32 203.62,438.26 204.80,461.42Z" fill="none" stroke="rgb(46,125,50)" stroke-width="2.00" stroke-linecap="round"/>
<path d="M203.12,461.21C204.12,483.02 172.47,499.72 131.30,498.63C92.02,499.85 60.86,483.27 59.21,458.87C60.51,438.50 92.83,420.63 133.00,419.88C171.93,420.08 204.52,436.45 203.98,460.68Z" fill="none" stroke="rgb(46,125,50)" stroke-width="2.00" stroke-linecap="round"/>
<text x="132.00" y="460.00" fill="rgb(46,125,50)" font-family="&quot;Architects Daughter&quot;, cursive" font-size="16.0" text-anchor="middle" dominant-baseline="central">PostgreSQL</text>
<path d="M291.25,456.38L306.18,471.20" fill="none" stroke="rgba(255,224,178,0.702)" stroke-width="1.00" stroke-linecap="round"/>
<path d="M298.60,451.96L329.96,483.53" fill="none" stroke="rgba(255,224,178,0.702)" stroke-width="1.00" stroke-linecap="round"/>
<path d="M306.21,448.64L353.25,496.11" fill="none" stroke="rgba(255,224,178,0.702)" stroke-width="1.00" stroke-linecap="round"/>
<path d="M313.16,444.54L366.43,497.39" fill="none" stroke="rgba(255,224,178,0.702)" stroke-width="1.00" stroke-linecap="round"/>
<path d="M320.51,440.60L373.95,493.62" fill="none" stroke="rgba(255,224,178,0.702)" stroke-width="1.00" stroke-linecap="round"/>
<path d="M328.09,437.49L381.57,489.41" fill="none" stroke="rgba(255,224,178,0.702)" stroke-width="1.00" stroke-linecap="round"/>
<path d="M335.49,432.99L388.37,485.84" fill="none" stroke="rgba(255,224,178,0.702)" stroke-width="1.00" stroke-linecap="round"/>
<path d="M342.98,429.27L395.61,482.30" fill="none" stroke="rgba(255,224,178,0.702)" stroke-width="1.00" stroke-linecap="round"/>
<path d="M350.96,425.91L403.86,478.35" fill="none" stroke="rgba(255,224,178,0.702)" stroke-width="1.00" stroke-linecap="round"/>
<path d="M358.54,421.75L410.40,474.24" fill="none" stroke="rgba(255,224,178,0.702)" stroke-width="1.00" stroke-linecap="round"/>
<path d="M375.69,427.09L417.90,470.29" fill="none" stroke="rgba(255,224,178,0.702)" stroke-width="1.00" stroke-linecap="round"/>
<path d="M398.89,439.06L426.22,466.58" fill="none" stroke="rgba(255,224,178,0.702)" stroke-width="1.00" stroke-linecap="round"/>
<path d="M421.72,451.35L433.30,463.04" fill="none" stroke="rgba(255,224,178,0.702)" stroke-width="1.00" stroke-linecap="round"/>
<path d="M360.93,419.27L439.10,458.59L359.99,499.59L285.24,459.56Z" fill="none" stroke="rgb(230,81,0)" stroke-width="2.00" stroke-linecap="round"/>
<path d="M362.12,421.36L438.60,458.94L360.13,501.16L283.81,460.00Z" fill="none" stroke="rgb(230,81,0)" stroke-width="2.00" stroke-linecap="round"/>
<text x="361.20" y="460.00" fill="rgb(230,81,0)" font-family="&quot;Architects Daughter&quot;, cursive" font-size="16.0" text-anchor="middle" dominant-baseline="central">Redis Cache</text>
<path d="M558.00,58.63L677.55,58.86L678.09,121.03L559.46,119.15Z" fill="none" stroke="rgb(173,20,87)" stroke-width="2.00" stroke-linecap="round"/>
<path d="M558.32,61.50L677.27,61.38L677.85,119.42L558.83,120.18Z" fill="none" stroke="rgb(173,20,87)" stroke-width="2.00" stroke-linecap="round"/>
<text x="618.40" y="90.00" fill="rgb(173,20,87)" font-family="&quot;Architects Daughter&quot;, cursive" font-size="16.0" text-anchor="middle" dominant-baseline="central">Web App</text>
<path d="M757.67,60.80L903.83,59.91L901.61,120.80L759.79,120.85Z" fill="none" stroke="rgb(173,20,87)" stroke-width="2.00" stroke-linecap="round"/>
<path d="M756.99,60.58L903.82,59.49L902.87,120.41L757.49,119.99Z" fill="none" stroke="rgb(173,20,87)" stroke-width="2.00" stroke-linecap="round"/>
<text x="830.40" y="90.00" fill="rgb(173,20,87)" font-family="&quot;Architects Daughter&quot;, cursive" font-size="16.0" text-anchor="middle" dominant-baseline="central">Mobile App</text>
</svg>